<svg xmlns="http://www.w3.org/2000/svg" xmlns:xlink="http://www.w3.org/1999/xlink" width="1024" zoomAndPan="magnify" viewBox="0 0 768 767.999994" height="1024" preserveAspectRatio="xMidYMid meet" version="1.0"><defs><filter x="0%" y="0%" width="100%" height="100%" id="6deefd1f6b"><feColorMatrix values="0 0 0 0 1 0 0 0 0 1 0 0 0 0 1 0 0 0 1 0" color-interpolation-filters="sRGB"/></filter><mask id="0f31e65999"><g filter="url(#6deefd1f6b)"><rect x="-76.8" width="921.6" fill="#000000" y="-76.799999" height="921.599993" fill-opacity="0.09"/></g></mask><clipPath id="8d2aa3709c"><path d="M 237 0 L 275 0 L 275 768 L 237 768 Z M 237 0 " clip-rule="nonzero"/></clipPath><clipPath id="d1fd7ee33d"><path d="M 493 0 L 531 0 L 531 768 L 493 768 Z M 493 0 " clip-rule="nonzero"/></clipPath><clipPath id="c940238d28"><path d="M 0 237 L 768 237 L 768 275 L 0 275 Z M 0 237 " clip-rule="nonzero"/></clipPath><clipPath id="19e8be8bea"><path d="M 0 493 L 768 493 L 768 531 L 0 531 Z M 0 493 " clip-rule="nonzero"/></clipPath><clipPath id="bc4b494655"><rect x="0" width="768" y="0" height="768"/></clipPath></defs><g mask="url(#0f31e65999)"><g transform="matrix(1, 0, 0, 1, 0, -0.000000000000057351)"><g clip-path="url(#bc4b494655)"><g clip-path="url(#8d2aa3709c)"><path stroke-linecap="butt" transform="matrix(1.92, 0, 0, 1.92, 0.000003, 0.00002)" fill="none" stroke-linejoin="miter" d="M 133.333338 -0.0000104167 L 133.333338 400.000009 " stroke="#685ab3" stroke-width="19" stroke-opacity="1" stroke-miterlimit="4"/></g><g clip-path="url(#d1fd7ee33d)"><path stroke-linecap="butt" transform="matrix(1.92, 0, 0, 1.92, 0.000003, 0.00002)" fill="none" stroke-linejoin="miter" d="M 266.666678 -0.0000104167 L 266.666678 400.000009 " stroke="#685ab3" stroke-width="19" stroke-opacity="1" stroke-miterlimit="4"/></g><g clip-path="url(#c940238d28)"><path stroke-linecap="butt" transform="matrix(1.92, 0, 0, 1.92, 0.000003, 0.00002)" fill="none" stroke-linejoin="miter" d="M -0.0000015625 133.33333 L 400.000018 133.33333 " stroke="#685ab3" stroke-width="19" stroke-opacity="1" stroke-miterlimit="4"/></g><g clip-path="url(#19e8be8bea)"><path stroke-linecap="butt" transform="matrix(1.92, 0, 0, 1.92, 0.000003, 0.00002)" fill="none" stroke-linejoin="miter" d="M -0.0000015625 266.666669 L 400.000018 266.666669 " stroke="#685ab3" stroke-width="19" stroke-opacity="1" stroke-miterlimit="4"/></g></g></g></g></svg>