<svg xmlns="http://www.w3.org/2000/svg" xmlns:xlink="http://www.w3.org/1999/xlink" width="1024" zoomAndPan="magnify" viewBox="0 0 768 767.999994" height="1024" preserveAspectRatio="xMidYMid meet" version="1.0"><defs><filter x="0%" y="0%" width="100%" height="100%" id="aca444cca4"><feColorMatrix values="0 0 0 0 1 0 0 0 0 1 0 0 0 0 1 0 0 0 1 0" color-interpolation-filters="sRGB"/></filter><mask id="3d1f769113"><g filter="url(#aca444cca4)"><rect x="-76.8" width="921.6" fill="#000000" y="-76.799999" height="921.599993" fill-opacity="0.15"/></g></mask><clipPath id="f44251949d"><rect x="0" width="768" y="0" height="768"/></clipPath></defs><g mask="url(#3d1f769113)"><g transform="matrix(1, 0, 0, 1, 0, -0.000000000000057351)"><g clip-path="url(#f44251949d)"><path fill="#000000" d="M 711.9375 0 L 714.496094 0 L 714.496094 768 L 711.9375 768 Z M 711.9375 0 " fill-opacity="1" fill-rule="nonzero"/><path fill="#000000" d="M 602.113281 0 L 604.671875 0 L 604.671875 768 L 602.113281 768 Z M 602.113281 0 " fill-opacity="1" fill-rule="nonzero"/><path fill="#000000" d="M 492.542969 0 L 495.105469 0 L 495.105469 768 L 492.542969 768 Z M 492.542969 0 " fill-opacity="1" fill-rule="nonzero"/><path fill="#000000" d="M 382.71875 0 L 385.28125 0 L 385.28125 768 L 382.71875 768 Z M 382.71875 0 " fill-opacity="1" fill-rule="nonzero"/><path fill="#000000" d="M 273.152344 0 L 275.710938 0 L 275.710938 768 L 273.152344 768 Z M 273.152344 0 " fill-opacity="1" fill-rule="nonzero"/><path fill="#000000" d="M 163.328125 0 L 165.886719 0 L 165.886719 768 L 163.328125 768 Z M 163.328125 0 " fill-opacity="1" fill-rule="nonzero"/><path fill="#000000" d="M 53.503906 0 L 56.0625 0 L 56.0625 768 L 53.503906 768 Z M 53.503906 0 " fill-opacity="1" fill-rule="nonzero"/><path fill="#000000" d="M 0 711.679688 L 768 711.679688 L 768 714.238281 L 0 714.238281 Z M 0 711.679688 " fill-opacity="1" fill-rule="nonzero"/><path fill="#000000" d="M 0 602.113281 L 768 602.113281 L 768 604.671875 L 0 604.671875 Z M 0 602.113281 " fill-opacity="1" fill-rule="nonzero"/><path fill="#000000" d="M 0 492.542969 L 768 492.542969 L 768 495.105469 L 0 495.105469 Z M 0 492.542969 " fill-opacity="1" fill-rule="nonzero"/><path fill="#000000" d="M 0 382.71875 L 768 382.71875 L 768 385.28125 L 0 385.28125 Z M 0 382.71875 " fill-opacity="1" fill-rule="nonzero"/><path fill="#000000" d="M 0 272.894531 L 768 272.894531 L 768 275.457031 L 0 275.457031 Z M 0 272.894531 " fill-opacity="1" fill-rule="nonzero"/><path fill="#000000" d="M 0 163.328125 L 768 163.328125 L 768 165.886719 L 0 165.886719 Z M 0 163.328125 " fill-opacity="1" fill-rule="nonzero"/><path fill="#000000" d="M 0 53.503906 L 768 53.503906 L 768 56.0625 L 0 56.0625 Z M 0 53.503906 " fill-opacity="1" fill-rule="nonzero"/></g></g></g></svg>