<svg xmlns="http://www.w3.org/2000/svg" xmlns:xlink="http://www.w3.org/1999/xlink" width="1024" zoomAndPan="magnify" viewBox="0 0 768 767.999994" height="1024" preserveAspectRatio="xMidYMid meet" version="1.0"><defs><filter x="0%" y="0%" width="100%" height="100%" id="d0c7f1ce0d"><feColorMatrix values="0 0 0 0 1 0 0 0 0 1 0 0 0 0 1 0 0 0 1 0" color-interpolation-filters="sRGB"/></filter><mask id="dadcb3024d"><g filter="url(#d0c7f1ce0d)"><rect x="-76.8" width="921.6" fill="#000000" y="-76.799999" height="921.599993" fill-opacity="0.35"/></g></mask><clipPath id="48d20d87a8"><path d="M 0.632812 1 L 767.882812 1 L 767.882812 711.882812 L 0.632812 711.882812 Z M 0.632812 1 " clip-rule="nonzero"/></clipPath><clipPath id="24db7bf804"><rect x="0" width="768" y="0" height="712"/></clipPath></defs><g mask="url(#dadcb3024d)"><g transform="matrix(1, 0, 0, 1, 0.000000000000000056, 28)"><g clip-path="url(#24db7bf804)"><g clip-path="url(#48d20d87a8)"><path fill="#ffffff" d="M 400.386719 711.78125 C 367.742188 711.78125 319.136719 711.148438 285.179688 710.632812 C 250.234375 710.101562 213.859375 709.4375 185.382812 708.8125 C 171.640625 708.511719 160.234375 708.226562 152.402344 707.988281 C 139.519531 707.601562 139.332031 707.476562 138.960938 707.230469 C 137.871094 706.503906 138.640625 704.949219 139.453125 703.304688 C 140.160156 701.875 141.277344 699.835938 142.773438 697.246094 C 145.28125 692.90625 148.890625 686.941406 153.507812 679.511719 C 161.363281 666.875 169.519531 654.207031 169.601562 654.078125 C 169.808594 653.761719 170.164062 653.554688 170.542969 653.578125 C 171.351562 653.589844 190.394531 653.9375 192.742188 654.121094 C 193.097656 654.148438 193.421875 654.320312 193.652344 654.605469 C 194.535156 655.6875 194.246094 659.074219 192.625 671.972656 C 191.855469 678.113281 190.984375 685.070312 190.601562 690.640625 C 190.035156 698.9375 190.851562 700.378906 191.074219 700.613281 C 193.804688 701.292969 233.464844 702.011719 281.679688 702.253906 C 333.636719 702.515625 370.945312 702.128906 374.519531 701.292969 C 380.226562 699.957031 398.171875 687.675781 406.34375 672.457031 C 410.738281 664.269531 411.632812 656.539062 409.011719 649.476562 C 401.277344 628.652344 387.007812 619.042969 382.839844 616.597656 C 382.347656 620.542969 381.726562 633.359375 381.125 645.804688 C 380.574219 657.183594 379.953125 670.078125 379.269531 680.0625 C 378.066406 697.621094 377.242188 698.167969 376.515625 698.652344 C 375.839844 699.105469 374.429688 700.042969 284.710938 698.359375 C 240.53125 697.527344 196.132812 696.449219 195.6875 696.4375 C 195.09375 696.421875 194.621094 695.9375 194.621094 695.34375 L 194.621094 651.089844 L 1.726562 651.089844 C 1.121094 651.089844 0.632812 650.597656 0.632812 649.992188 C 0.632812 649.386719 1.121094 648.898438 1.726562 648.898438 L 195.714844 648.898438 C 195.925781 648.898438 196.121094 648.957031 196.285156 649.058594 C 196.078125 648.128906 195.960938 644.972656 198.007812 631.136719 C 199.121094 623.601562 200.648438 614.679688 201.183594 613.402344 C 201.675781 612.222656 206.78125 603.167969 212.480469 594.441406 C 224.015625 576.769531 227.433594 576.476562 228.554688 576.382812 C 234.851562 575.839844 271.242188 577.5625 272.789062 577.636719 C 272.871094 577.640625 272.953125 577.65625 273.035156 577.679688 C 313.457031 589.101562 374.5 605.753906 381.054688 605.972656 C 381.089844 605.5 380.984375 604.59375 380.636719 603.121094 C 376.515625 602.015625 352.3125 595.570312 319.824219 588.261719 C 283.835938 580.164062 239.320312 569.171875 230.410156 565.71875 C 229.394531 565.324219 228.34375 564.917969 228.652344 563.847656 C 228.957031 562.796875 230.039062 562.980469 231.292969 563.191406 C 232.167969 563.339844 233.390625 563.578125 234.808594 563.855469 C 237.867188 564.449219 242.058594 565.269531 245.621094 565.726562 C 250.191406 566.316406 251.714844 566.046875 252.1875 565.878906 C 251.925781 565.4375 250.886719 564.21875 246.785156 561.667969 C 241.878906 558.625 238.066406 556.015625 235.058594 553.710938 C 236.09375 556.125 235.464844 557.832031 234.691406 558.875 C 232.234375 562.195312 225.386719 562.742188 220.1875 561.566406 C 219.183594 561.339844 217.46875 560.425781 215.25 558.992188 C 215.753906 559.703125 216.125 560.277344 216.351562 560.691406 C 217.472656 562.730469 218.578125 565.292969 217.199219 567.035156 C 215.28125 569.449219 209.789062 568.914062 195.421875 564.914062 C 187.371094 562.671875 177.171875 556.40625 167.019531 549.03125 C 166.578125 549.464844 166.007812 549.839844 165.320312 550.136719 C 164.015625 550.707031 162.28125 551.035156 160.136719 551.035156 C 153.132812 551.035156 141.695312 547.550781 126.03125 537.671875 C 107.292969 525.851562 108.316406 514.859375 108.996094 507.585938 C 109.292969 504.429688 109.503906 502.152344 108.105469 500.828125 C 106.152344 498.980469 102.351562 500.53125 100.261719 501.625 C 87.074219 508.503906 64.140625 536.90625 67.714844 560.816406 C 70.542969 579.710938 81.09375 603.578125 98.292969 614.300781 C 107.867188 620.269531 118.335938 621.511719 129.402344 617.996094 C 154.855469 609.914062 160.25 576.710938 162.84375 560.753906 C 163.957031 553.902344 164.335938 551.902344 165.65625 551.429688 C 166.167969 551.242188 166.71875 551.363281 167.167969 551.753906 C 169.355469 553.667969 173.046875 561.324219 174.015625 571.671875 C 174.863281 580.730469 173.898438 594.65625 164.492188 609.550781 C 142.847656 643.816406 139.992188 647.484375 138.011719 647.25 C 137.472656 647.183594 137.035156 646.8125 136.851562 646.261719 C 136.457031 645.078125 137.652344 642.664062 144.828125 630.097656 C 147.402344 625.59375 150.667969 619.878906 152.292969 616.542969 C 148.523438 619.644531 140 625.746094 128.375 628.59375 C 124.105469 629.640625 119.839844 630.164062 115.59375 630.164062 C 104.246094 630.164062 93.023438 626.425781 82.089844 618.988281 C 73.738281 613.304688 67.046875 604.5625 62.738281 593.710938 C 58.800781 583.796875 56.871094 572.316406 57.160156 560.511719 C 57.4375 549.121094 59.75 538.148438 63.84375 528.777344 C 68.082031 519.082031 74.058594 511.597656 81.15625 507.085938 C 81.613281 502.683594 86.988281 485.640625 90.753906 474.488281 C 93.183594 467.304688 101.410156 443.46875 105.355469 438.414062 C 109.835938 432.679688 114.714844 434.96875 118.277344 436.636719 C 119.933594 437.414062 121.5 438.148438 122.714844 438.023438 C 122.242188 437.285156 120.910156 435.953125 119.894531 434.9375 C 116.929688 431.976562 113.566406 428.617188 114.011719 425.5 C 114.175781 424.359375 114.789062 423.84375 115.277344 423.609375 C 117.054688 422.753906 119.691406 424.21875 124.203125 426.878906 C 127.722656 428.953125 132.101562 431.539062 134.300781 431.058594 C 134.523438 431.011719 134.644531 430.957031 134.703125 430.925781 C 134.632812 429.933594 131.515625 426.84375 129.636719 424.980469 C 126.675781 422.042969 123.320312 418.71875 122.015625 415.78125 C 118.871094 408.714844 123.421875 378.5625 142.972656 348.515625 L 143.230469 348.117188 C 160.628906 321.371094 188.558594 278.441406 246.097656 260.316406 C 251.316406 256.578125 257.882812 253.691406 265.734375 251.703125 C 275.621094 249.191406 287.574219 248.085938 301.253906 248.40625 C 324.488281 248.953125 344.992188 253.507812 345.199219 253.554688 C 345.492188 253.621094 345.746094 253.804688 345.898438 254.0625 C 346.082031 254.371094 364.277344 285.046875 373.320312 306.703125 C 382.320312 328.25 398.953125 327.890625 421.160156 320.71875 C 449.085938 311.699219 480.648438 280.789062 492.925781 267.917969 C 509.332031 250.710938 521.496094 223.597656 523.800781 218.257812 C 519.484375 215.976562 502.21875 205.984375 505.804688 194.039062 C 506.210938 192.6875 507.132812 191.730469 508.476562 191.269531 C 517.355469 188.234375 546.464844 207.804688 570.832031 225.195312 C 572.007812 226.035156 573.003906 226.746094 573.800781 227.308594 C 569.640625 221.453125 556.480469 206.925781 541.410156 198.554688 L 540.019531 197.78125 C 523.199219 188.441406 505.808594 178.785156 503.183594 169 C 502.476562 166.363281 502.851562 163.804688 504.292969 161.398438 C 505.140625 159.988281 506.589844 159.148438 508.605469 158.898438 C 510.9375 158.613281 514.023438 159.164062 517.554688 160.285156 C 515.414062 156.539062 515.289062 153.496094 517.1875 151.242188 C 520.128906 147.742188 527.195312 147.382812 532.609375 147.695312 C 536.710938 147.933594 541.261719 148.675781 544.953125 149.652344 C 542.199219 148.578125 539.660156 147.550781 537.464844 146.660156 C 535.546875 145.886719 533.886719 145.214844 532.679688 144.753906 C 530.960938 144.101562 528.886719 142.753906 526.265625 141.042969 C 517.59375 135.398438 503.085938 125.945312 476.628906 124.667969 C 458.054688 123.773438 449.84375 115.917969 441.898438 108.320312 C 434.625 101.367188 427.757812 94.796875 413.222656 93.234375 C 396.957031 91.484375 393.429688 99.390625 388.960938 109.402344 C 385.207031 117.8125 380.957031 127.34375 368.140625 132.507812 C 359.761719 135.886719 354.183594 146.109375 351.085938 163.757812 C 348.390625 179.117188 348.085938 197.621094 347.84375 212.492188 C 347.652344 224.109375 347.488281 234.140625 346.269531 239.699219 C 345.980469 241.011719 345.101562 245.011719 342.453125 244.625 C 341.292969 244.457031 339.4375 243.425781 336.695312 236.433594 C 334.972656 232.046875 333.207031 226.121094 331.582031 219.296875 C 328.125 204.761719 326.261719 190.230469 326.828125 182.28125 C 326.910156 181.136719 326.820312 180.589844 326.75 180.351562 C 326.019531 180.640625 323.671875 182.457031 316.933594 192.613281 C 312.023438 200.015625 306.285156 209.515625 300.734375 218.707031 C 287.5 240.617188 283.613281 246.578125 281.484375 246.792969 C 281.015625 246.839844 280.570312 246.644531 280.289062 246.273438 C 279.652344 245.4375 279.539062 244.066406 283.554688 233.105469 C 286.144531 226.035156 289.976562 216.300781 294.417969 205.027344 C 308.710938 168.730469 330.3125 113.878906 336.441406 80.90625 C 341.070312 55.996094 360.679688 32.160156 388.894531 17.140625 C 406.582031 7.730469 426.871094 2.242188 447.574219 1.277344 C 470.757812 0.191406 493.933594 4.59375 516.46875 14.359375 C 542.09375 25.464844 561.523438 42.746094 574.21875 65.726562 C 586.171875 87.371094 589.371094 108.925781 589.949219 123.199219 C 590.582031 138.726562 588.21875 152.890625 584.6875 154.773438 C 582.769531 155.796875 580.113281 156.457031 577.058594 156.804688 C 578.476562 157.265625 579.777344 158.019531 580.964844 158.996094 C 581.117188 158.175781 581.394531 157.484375 581.816406 156.941406 C 582.378906 156.214844 583.46875 155.402344 585.453125 155.660156 C 591.253906 156.410156 592.277344 164.328125 593.570312 174.347656 C 594.71875 183.230469 596.144531 194.28125 601.417969 202.648438 C 609.007812 214.699219 613.351562 240.777344 617.550781 266 C 619.519531 277.828125 621.554688 290.058594 623.871094 300.40625 C 624.765625 304.390625 626.28125 310.878906 628.199219 319.089844 C 634.839844 347.515625 647.203125 400.425781 656.734375 448.5625 C 668.375 507.386719 672.613281 543.050781 669.324219 554.5625 C 665.871094 566.648438 652.835938 576.894531 633.5625 582.675781 C 621.449219 586.308594 608.0625 587.75 595.863281 586.738281 C 582.621094 585.636719 571.820312 581.789062 564.625 575.605469 C 552.207031 564.9375 544.308594 552.878906 541.148438 539.761719 C 538.234375 527.660156 539.367188 514.84375 544.523438 501.675781 C 549.710938 488.417969 557.933594 444.289062 563.402344 410.527344 C 570.066406 369.355469 574.023438 335.707031 572.601562 332.257812 C 571.824219 330.371094 570.921875 327.925781 569.878906 325.097656 C 569.546875 324.199219 569.203125 323.265625 568.847656 322.3125 C 568.765625 330.992188 568.140625 340.789062 566.785156 352.125 C 560.898438 401.433594 543.929688 488.800781 530.03125 531.921875 C 515.644531 576.558594 520.410156 592.242188 526.007812 603.4375 C 529.351562 610.121094 550.785156 621.257812 569.691406 631.082031 C 584.558594 638.804688 597.394531 645.472656 601.070312 649.628906 C 603.414062 652.277344 607.613281 653.480469 612.894531 653.023438 C 617.417969 652.625 623.046875 650.917969 628.984375 647.550781 C 628.238281 646.957031 627.746094 646.292969 627.460938 645.550781 C 626.15625 642.164062 629.5 638.128906 636.5625 631.402344 C 654.636719 614.1875 660.8125 586.722656 664.5 570.316406 C 665.414062 566.238281 666.140625 563.015625 666.867188 560.761719 C 667.320312 559.359375 667.816406 558.398438 668.757812 558.273438 C 669.296875 558.199219 669.816406 558.460938 670.144531 558.96875 C 672.59375 562.730469 670.179688 599.785156 655.167969 624.292969 C 648.675781 634.894531 640.992188 642.367188 633.519531 647.316406 C 637.59375 648.605469 643.953125 649.269531 649.125 649.6875 C 662.386719 650.757812 682.34375 651.273438 712.550781 652.0625 C 728.261719 652.46875 746.066406 652.933594 766.917969 653.578125 C 767.523438 653.597656 768 654.101562 767.980469 654.707031 C 767.960938 655.3125 767.457031 655.800781 766.851562 655.769531 C 746.003906 655.125 728.203125 654.660156 712.492188 654.253906 C 682.25 653.464844 662.269531 652.945312 648.949219 651.871094 C 640.074219 651.15625 634.460938 650.226562 631.15625 648.804688 C 624.503906 652.773438 618.140625 654.761719 613.085938 655.207031 C 607.09375 655.730469 602.246094 654.265625 599.425781 651.082031 C 596.023438 647.230469 582.742188 640.332031 568.679688 633.027344 C 548.539062 622.558594 527.710938 611.738281 524.046875 604.417969 C 521.230469 598.785156 518.355469 591.421875 518.355469 579.496094 C 518.355469 567.054688 521.492188 551.269531 527.945312 531.25 C 541.804688 488.246094 558.734375 401.074219 564.609375 351.863281 C 566.265625 338 566.820312 326.460938 566.621094 316.449219 C 563.578125 308.65625 559.902344 300.335938 555.707031 294.832031 C 553.332031 291.714844 551.136719 288.425781 549.007812 285.246094 C 544.144531 277.964844 539.550781 271.089844 533.136719 266.378906 C 529.394531 263.632812 524.648438 261.117188 520.464844 258.894531 C 513.832031 255.378906 510.355469 253.445312 509.992188 251.324219 C 509.878906 250.671875 510.074219 250.03125 510.542969 249.519531 C 511.511719 248.464844 512.78125 245.453125 513.964844 242.511719 C 508.722656 251.546875 502.0625 261.511719 494.511719 269.433594 C 486.769531 277.550781 474.625 289.5 460.734375 300.335938 C 446.34375 311.554688 433.257812 319.113281 421.832031 322.804688 C 408.511719 327.105469 399.125 328.246094 391.398438 326.503906 C 382.347656 324.460938 375.769531 318.261719 371.296875 307.546875 C 362.882812 287.394531 346.449219 259.3125 344.257812 255.59375 C 341.109375 254.925781 322.273438 251.089844 301.167969 250.597656 C 287.691406 250.28125 275.945312 251.371094 266.257812 253.832031 C 262.019531 254.90625 258.175781 256.246094 254.738281 257.84375 C 258.625 256.84375 262.632812 255.949219 266.777344 255.179688 C 277.394531 253.207031 286.773438 253.007812 294.65625 254.585938 C 302.109375 256.082031 308.46875 259.21875 313.558594 263.90625 C 323.664062 273.214844 329.195312 288.871094 330.460938 311.765625 C 331.53125 331.09375 329.570312 352.714844 327.09375 376.9375 C 325.597656 391.550781 327.402344 393.359375 327.992188 393.5625 C 328.367188 393.695312 329.929688 393.671875 334.375 387.902344 C 337.53125 383.804688 341.136719 378.171875 344.957031 372.207031 C 355.609375 355.574219 362.441406 345.570312 367.476562 346.964844 C 370.15625 347.707031 371.503906 351.464844 371.726562 358.796875 C 373.03125 402.171875 373.152344 545.988281 373.164062 571.046875 C 374.75 568.828125 377.339844 565.578125 381.261719 561.667969 C 388.03125 554.921875 400.246094 544.832031 419.992188 535.097656 C 457.6875 516.519531 486.984375 512.511719 487.277344 512.476562 C 487.476562 512.449219 487.683594 512.480469 487.871094 512.5625 L 513.0625 523.925781 C 513.507812 524.128906 513.769531 524.601562 513.695312 525.085938 C 513.625 525.570312 513.238281 525.949219 512.753906 526.011719 C 512.425781 526.054688 479.304688 530.523438 438.726562 548.066406 C 417.679688 557.164062 403.535156 571.507812 395.378906 581.941406 C 387.441406 592.085938 383.46875 600.601562 382.699219 602.332031 C 382.964844 603.421875 383.148438 604.398438 383.210938 605.179688 C 383.285156 606.0625 383.28125 607.304688 382.394531 607.894531 C 382.023438 608.144531 381.621094 608.410156 377.59375 607.65625 C 380.773438 608.292969 383.042969 608.804688 384.261719 609.089844 C 385.945312 604.585938 396.113281 589.183594 455.691406 595.996094 C 490.855469 600.019531 527.925781 616.316406 552.828125 629.277344 C 580.355469 643.605469 601.332031 658.261719 603.128906 661.671875 C 603.46875 662.316406 603.355469 662.804688 603.199219 663.101562 C 601.941406 665.472656 596.664062 664.621094 582.328125 659.714844 C 584.039062 661.675781 586.550781 664.496094 589.152344 667.40625 C 611.417969 692.371094 613.003906 694.941406 612.128906 696.390625 C 611.890625 696.78125 611.363281 697.132812 610.601562 696.941406 C 605.605469 695.695312 576.199219 663.503906 574.191406 660.921875 C 571.667969 658.132812 518.769531 638.675781 481.136719 626.199219 C 448.523438 615.386719 400.09375 610.996094 390.476562 613.617188 C 393.585938 615.671875 406.355469 621.703125 451.507812 639.113281 C 485.648438 652.277344 527.589844 667.855469 561.289062 680.375 C 578.191406 686.652344 592.792969 692.074219 603.304688 696.039062 C 608.875 698.140625 612.925781 699.695312 615.699219 700.785156 C 620.652344 702.742188 620.695312 702.859375 620.894531 703.410156 C 621.003906 703.714844 620.976562 704.0625 620.816406 704.339844 C 620.230469 705.367188 620.195312 705.429688 591.6875 702.464844 C 563.605469 699.546875 521.167969 695.132812 491.714844 694.457031 C 455.675781 693.632812 446.003906 702.253906 440.226562 707.40625 C 438.507812 708.941406 437.023438 710.265625 435.269531 710.9375 C 433.667969 711.554688 419.867188 711.78125 400.386719 711.78125 Z M 140.886719 705.363281 C 150.277344 705.976562 217.8125 707.421875 286.5 708.460938 C 374.625 709.789062 431.328125 709.953125 434.484375 708.890625 C 435.859375 708.363281 437.144531 707.21875 438.765625 705.773438 C 444.785156 700.402344 454.859375 691.410156 491.761719 692.265625 C 521.304688 692.945312 563.792969 697.363281 591.910156 700.289062 C 600.804688 701.210938 608.933594 702.058594 614.054688 702.496094 C 604.695312 698.835938 583.816406 691.082031 560.523438 682.429688 C 526.144531 669.660156 483.355469 653.769531 448.878906 640.453125 C 387.863281 616.886719 387.6875 614.808594 387.570312 613.433594 C 387.523438 612.90625 387.78125 612.429688 388.253906 612.15625 C 392.578125 609.652344 410.285156 610.664062 425.417969 612.441406 C 446.277344 614.894531 466.835938 619.152344 481.824219 624.121094 C 499.039062 629.828125 521.921875 637.859375 540.117188 644.578125 C 573.984375 657.085938 575.441406 658.960938 575.921875 659.578125 C 578.59375 663.015625 599.636719 685.503906 608.046875 692.65625 C 603.6875 687.003906 593.558594 675.648438 587.511719 668.871094 C 584.867188 665.90625 582.585938 663.34375 580.933594 661.453125 C 578.046875 658.144531 577.835938 657.878906 578.179688 657.113281 C 578.355469 656.71875 578.761719 656.457031 579.195312 656.457031 C 579.554688 656.457031 580.015625 656.605469 582.726562 657.535156 C 585.589844 658.519531 589.921875 660.003906 593.796875 661.035156 C 598.164062 662.195312 600.03125 662.257812 600.800781 662.160156 C 597.753906 658.695312 578.847656 645.324219 552.160156 631.40625 C 527.332031 618.453125 490.394531 602.175781 455.441406 598.175781 C 421.140625 594.253906 404.0625 597.90625 395.777344 601.660156 C 386.996094 605.636719 386.117188 610.515625 386.109375 610.566406 C 386.0625 610.871094 385.886719 611.144531 385.628906 611.3125 C 385.371094 611.484375 385.054688 611.542969 384.757812 611.46875 C 384.34375 611.363281 343.082031 601.089844 291.484375 602.683594 C 243.769531 604.160156 213.101562 612.476562 208.511719 613.796875 C 208 615.960938 206.210938 623.449219 204.296875 630.9375 C 199.605469 649.257812 198.785156 649.699219 198.125 650.050781 C 197.816406 650.214844 197.453125 650.242188 197.128906 650.121094 C 197.035156 650.085938 196.921875 650.027344 196.8125 649.945312 C 196.8125 649.960938 196.8125 649.976562 196.8125 649.996094 L 196.8125 694.273438 C 265.6875 695.945312 368.152344 697.953125 375.21875 696.796875 C 376.636719 693.296875 378.015625 664.742188 378.9375 645.703125 C 380.441406 614.570312 380.617188 614.480469 381.609375 613.980469 C 381.933594 613.816406 382.324219 613.820312 382.644531 613.988281 C 383.050781 614.1875 387.617188 616.480469 393.328125 621.777344 C 398.710938 626.769531 406.15625 635.496094 411.066406 648.714844 C 413.917969 656.390625 412.980469 664.730469 408.273438 673.492188 C 403.511719 682.363281 396.101562 689.480469 390.726562 693.890625 C 384.738281 698.796875 378.425781 702.628906 375.015625 703.429688 C 370.40625 704.507812 321.652344 704.652344 281.300781 704.445312 C 251.15625 704.292969 193.351562 703.726562 190.316406 702.675781 C 187.261719 701.621094 187.695312 693.640625 190.449219 671.699219 C 191.242188 665.386719 192.132812 658.300781 191.945312 656.269531 C 188.335938 656.105469 174.230469 655.839844 171.113281 655.78125 C 160.117188 672.867188 143.277344 699.742188 140.886719 705.363281 Z M 191.097656 700.636719 Z M 375.472656 696.742188 Z M 668.695312 562.277344 C 668.078125 564.386719 667.429688 567.269531 666.636719 570.796875 C 662.894531 587.445312 656.628906 615.316406 638.074219 632.988281 C 633.433594 637.40625 628.566406 642.324219 629.503906 644.761719 C 629.726562 645.339844 630.277344 645.851562 631.074219 646.304688 C 638.667969 641.542969 646.613281 634.0625 653.296875 623.148438 C 661.753906 609.34375 665.53125 592.394531 667.035156 583.519531 C 668.695312 573.679688 668.972656 565.910156 668.695312 562.277344 Z M 138.96875 645.816406 Z M 232.554688 578.46875 C 230.859375 578.46875 229.539062 578.496094 228.742188 578.566406 C 227.925781 578.636719 224.480469 580.074219 214.3125 595.640625 C 208.523438 604.507812 203.585938 613.335938 203.207031 614.246094 C 202.863281 615.078125 201.480469 622.65625 200.214844 631.179688 C 199.433594 636.457031 198.925781 640.519531 198.640625 643.398438 C 200.652344 636.671875 203.8125 624.203125 206.527344 612.671875 C 206.613281 612.292969 206.898438 611.992188 207.269531 611.875 C 207.585938 611.777344 239.503906 602.097656 291.417969 600.492188 C 328.765625 599.335938 360.746094 604.367188 375.910156 607.324219 C 373.160156 606.757812 369.171875 605.839844 363.34375 604.394531 C 354.179688 602.125 341.601562 598.828125 325.960938 594.59375 C 300.261719 587.636719 274.546875 580.382812 272.558594 579.824219 C 270.480469 579.726562 243.578125 578.46875 232.554688 578.46875 Z M 154.230469 612.601562 C 154.492188 612.601562 154.757812 612.679688 155.007812 612.882812 C 155.917969 613.617188 155.757812 614.734375 153.023438 619.925781 C 151.355469 623.089844 149.003906 627.207031 146.730469 631.1875 C 144.632812 634.859375 142.21875 639.089844 140.644531 642.085938 C 145.246094 635.917969 154.371094 621.464844 162.636719 608.378906 C 171.714844 594.007812 172.644531 580.597656 171.832031 571.875 C 170.988281 562.886719 168.125 556.421875 166.332031 554.082031 C 165.925781 555.453125 165.460938 558.316406 165.007812 561.105469 C 162.34375 577.492188 156.800781 611.597656 130.066406 620.085938 C 118.355469 623.804688 107.277344 622.484375 97.132812 616.164062 C 88.992188 611.085938 81.644531 602.765625 75.890625 592.101562 C 70.792969 582.660156 67.121094 571.667969 65.546875 561.140625 C 63.917969 550.257812 67.492188 537.085938 75.605469 524.050781 C 82.347656 513.222656 91.628906 503.65625 99.246094 499.679688 C 105.019531 496.667969 108.070312 497.777344 109.613281 499.238281 C 111.785156 501.292969 111.503906 504.304688 111.179688 507.789062 C 110.511719 514.933594 109.597656 524.71875 127.199219 535.816406 C 136.601562 541.746094 145.011719 545.71875 152.203125 547.628906 C 159.710938 549.625 163.265625 548.644531 164.445312 548.128906 C 164.738281 548 164.996094 547.855469 165.207031 547.703125 C 159.671875 543.613281 154.191406 539.242188 149.113281 535.066406 C 146.734375 534.519531 143.667969 533.570312 140.421875 532.039062 C 134.441406 529.214844 126.3125 523.652344 121.539062 513.207031 C 118.136719 505.761719 119.417969 499.765625 122.414062 494.894531 C 122.042969 495.171875 121.683594 495.441406 121.335938 495.699219 C 116.832031 499.066406 114.109375 501.097656 111.828125 500.230469 C 110.042969 499.554688 109.371094 497.324219 108.984375 495.457031 C 108.28125 492.054688 113.125 485.070312 123.375 474.699219 C 130.875 467.113281 139.742188 459.398438 142.367188 457.824219 C 145.417969 455.992188 150.984375 454.886719 152.417969 457.113281 C 153.296875 458.480469 152.332031 460.148438 149.550781 462.066406 C 142.800781 466.722656 140.164062 473.726562 139.945312 478.726562 C 139.851562 480.90625 137.410156 482.96875 134.027344 485.828125 C 131.292969 488.136719 128.160156 490.785156 125.738281 493.933594 C 125.753906 494.691406 125.648438 495.632812 125.515625 496.773438 C 124.90625 502.113281 123.882812 511.046875 132.113281 517.90625 C 133.929688 519.421875 136.046875 521.21875 138.289062 523.121094 C 141.777344 526.082031 145.789062 529.488281 150.101562 533.042969 C 151.765625 533.402344 152.929688 533.523438 153.308594 533.503906 C 153.683594 533.433594 154.503906 533.375 158.164062 535.875 C 160.539062 537.496094 162.878906 539.390625 164.585938 541.074219 C 167.074219 543.539062 168.207031 545.5 168.03125 547.066406 C 178.089844 554.394531 188.15625 560.613281 196.011719 562.800781 C 200.414062 564.027344 213.820312 567.761719 215.480469 565.671875 C 215.675781 565.425781 215.964844 564.546875 214.429688 561.746094 C 213.832031 560.65625 212.003906 558.207031 209.296875 554.835938 C 201.996094 549.449219 192.457031 541.605469 183.984375 534.117188 C 172.589844 524.046875 153.523438 506.191406 153.832031 499.742188 C 153.90625 498.183594 154.921875 497.78125 155.355469 497.683594 C 156.5625 497.402344 160.238281 496.554688 187.265625 526.070312 C 196.015625 535.628906 205.070312 546.113281 210.761719 553.171875 C 215.785156 556.867188 219.367188 559.136719 220.671875 559.429688 C 225.8125 560.589844 231.3125 559.757812 232.929688 557.574219 C 233.640625 556.609375 233.558594 555.390625 232.675781 553.84375 C 231.144531 551.171875 219.304688 537.082031 206.765625 522.167969 C 197.617188 511.285156 188.15625 500.03125 180.847656 491.039062 C 168.089844 475.335938 168.367188 474.503906 168.664062 473.625 C 168.800781 473.214844 169.132812 472.910156 169.554688 472.8125 C 171.007812 472.480469 172.636719 474.152344 184.074219 487.722656 C 191.96875 497.089844 201.796875 508.75 210.867188 517.746094 C 223.648438 530.414062 228.996094 531.792969 231.230469 530.71875 C 235.777344 528.535156 238.054688 526.542969 238.621094 524.269531 C 239.542969 520.570312 236.015625 515.429688 230.105469 507.402344 C 221.136719 495.234375 208.628906 473.933594 206.042969 469.496094 C 205.625 469.664062 205.203125 469.835938 204.785156 470.003906 C 209.085938 476.277344 213.34375 481.9375 213.386719 481.996094 C 213.597656 482.277344 213.664062 482.640625 213.558594 482.976562 C 213.457031 483.3125 213.199219 483.578125 212.863281 483.691406 C 212.730469 483.738281 209.550781 484.816406 207.472656 484.816406 C 206.992188 484.816406 206.28125 484.484375 205.453125 483.9375 C 204.179688 484.390625 201.363281 485.363281 198.464844 486.246094 C 190.738281 488.597656 189.320312 488.246094 188.601562 487.730469 C 187.46875 486.921875 187.382812 485.230469 190.453125 479.316406 C 192.109375 476.125 194.035156 472.984375 194.324219 472.554688 C 194.492188 472.304688 194.84375 471.769531 201.457031 469.003906 C 192.660156 455.882812 193.375 454.097656 193.722656 453.230469 C 193.949219 452.65625 194.4375 452.269531 195.054688 452.167969 C 197.128906 451.820312 200.167969 455.492188 209.019531 466.9375 C 218.882812 479.691406 233.785156 498.96875 241.160156 497.988281 C 245.085938 497.46875 247.742188 495.734375 249.058594 492.828125 C 251.101562 488.324219 249.390625 482.230469 247.589844 479.527344 C 246.652344 478.125 244.882812 475.597656 242.828125 472.671875 C 230.089844 454.511719 230.261719 454.164062 230.726562 453.238281 C 230.859375 452.96875 230.972656 452.746094 233.46875 451.3125 C 229.867188 443.652344 225.234375 435.339844 221.582031 433.335938 C 207.269531 425.484375 196.765625 422.914062 192.003906 426.085938 C 189.855469 427.519531 190.1875 428.308594 190.6875 429.496094 C 191 430.242188 191.429688 431.261719 190.824219 432.265625 C 190.058594 433.535156 187.957031 434.414062 179.496094 435.144531 C 162.84375 436.582031 157.3125 447.441406 155.5 453.789062 C 155.339844 454.359375 154.871094 454.734375 154.3125 454.742188 C 153.601562 454.753906 152.628906 454.773438 148.230469 445.414062 C 145.558594 439.726562 142.976562 433.304688 141.324219 428.238281 C 138.046875 418.183594 139.078125 415.878906 140.339844 414.992188 C 141.9375 413.871094 144.0625 415.253906 145.523438 416.394531 C 147 417.542969 148.378906 418.640625 149.710938 419.703125 C 155.128906 424.023438 160.246094 428.101562 161.96875 427.164062 C 162.855469 426.683594 163.746094 424.386719 162.953125 416.164062 C 162.101562 407.328125 162.050781 386.960938 162.832031 368.792969 C 164.339844 333.847656 167.324219 333.203125 168.597656 332.929688 C 170.585938 332.503906 171.605469 335.488281 172.039062 336.765625 C 178.167969 354.703125 198.75 395.007812 205.4375 398.253906 C 205.734375 398.398438 205.882812 398.394531 205.90625 398.386719 C 205.910156 398.386719 206.222656 398.171875 206.386719 396.957031 C 206.628906 395.140625 206.929688 392.1875 207.3125 388.445312 C 208.59375 375.855469 210.984375 352.425781 215.679688 329.105469 C 221.421875 300.601562 229.023438 279.984375 238.273438 267.832031 C 239.25 266.550781 240.328125 265.328125 241.503906 264.167969 C 188.226562 282.976562 161.753906 323.664062 145.066406 349.316406 L 144.808594 349.714844 C 125.304688 379.695312 121.394531 408.988281 124.015625 414.890625 C 125.15625 417.453125 128.355469 420.625 131.179688 423.425781 C 135.261719 427.472656 137.367188 429.671875 136.808594 431.585938 C 136.644531 432.15625 136.152344 432.902344 134.765625 433.203125 C 131.726562 433.863281 127.335938 431.273438 123.085938 428.769531 C 120.832031 427.4375 117.058594 425.210938 116.234375 425.582031 C 116.238281 425.589844 116.207031 425.65625 116.183594 425.808594 C 115.890625 427.839844 119.101562 431.046875 121.441406 433.390625 C 123.867188 435.8125 125.464844 437.410156 124.988281 438.882812 C 124.832031 439.367188 124.390625 439.984375 123.1875 440.175781 C 121.292969 440.472656 119.375 439.574219 117.34375 438.625 C 113.820312 436.96875 110.488281 435.410156 107.082031 439.765625 C 101.167969 447.339844 82.992188 504.019531 83.316406 507.582031 C 83.367188 508.007812 83.164062 508.421875 82.796875 508.648438 C 69.121094 517.007812 59.917969 537.386719 59.351562 560.566406 C 58.742188 585.386719 67.707031 606.546875 83.324219 617.175781 C 118.578125 641.171875 146.945312 618.464844 152.273438 613.667969 C 152.695312 613.289062 153.460938 612.601562 154.230469 612.601562 Z M 245.328125 567.90625 C 263.449219 572.816406 294.125 580.230469 320.304688 586.121094 C 350.453125 592.90625 373.484375 598.945312 379.984375 600.679688 C 379.261719 598.214844 378.113281 594.824219 376.34375 590.269531 C 373.628906 583.285156 370.84375 577.152344 369.855469 575.445312 C 369.394531 575.523438 368.707031 575.609375 367.65625 575.726562 C 365.730469 575.9375 363.21875 576.160156 360.582031 576.347656 C 355.457031 576.71875 347.359375 577.152344 337.753906 577.152344 C 337.621094 577.152344 337.492188 577.152344 337.359375 577.152344 C 320.78125 577.132812 297.546875 575.757812 280.976562 569.316406 C 262.890625 562.292969 244.859375 549.097656 232.929688 540.367188 C 228.941406 537.453125 224.847656 534.457031 222.800781 533.320312 C 223.273438 534.382812 223.679688 535.378906 224.074219 536.34375 C 226.941406 543.328125 228.835938 547.945312 247.941406 559.808594 C 253.210938 563.078125 255.003906 565.015625 254.339844 566.707031 C 253.6875 568.375 250.878906 568.640625 245.328125 567.90625 Z M 372.503906 575.78125 C 372.777344 576.335938 373.105469 577.015625 373.492188 577.855469 C 374.660156 580.386719 376.082031 583.703125 377.394531 586.964844 C 378.453125 589.597656 380.4375 594.6875 381.796875 599.105469 C 383.59375 595.488281 387.375 588.625 393.601562 580.652344 C 401.921875 570 416.355469 555.351562 437.855469 546.054688 C 470.898438 531.769531 499.058594 526.09375 508.8125 524.417969 L 487.257812 514.695312 C 484.070312 515.167969 456.257812 519.671875 420.960938 537.070312 C 401.550781 546.636719 389.550781 556.519531 382.90625 563.125 C 375.710938 570.277344 373.066406 575.234375 373.039062 575.285156 C 372.917969 575.511719 372.726562 575.683594 372.503906 575.78125 Z M 568.8125 316.03125 C 569.945312 318.941406 570.984375 321.765625 571.933594 324.335938 C 572.972656 327.148438 573.867188 329.574219 574.628906 331.421875 C 576.78125 336.652344 569.945312 383.828125 565.566406 410.878906 C 560.082031 444.746094 551.8125 489.054688 546.5625 502.472656 C 536.078125 529.265625 542.816406 553.980469 566.050781 573.941406 C 572.894531 579.820312 583.265625 583.488281 596.042969 584.550781 C 607.976562 585.539062 621.078125 584.128906 632.933594 580.574219 C 651.476562 575.011719 663.972656 565.3125 667.214844 553.957031 C 674.703125 527.75 639.367188 376.519531 626.0625 319.589844 C 624.144531 311.371094 622.625 304.878906 621.730469 300.886719 C 619.402344 290.480469 617.359375 278.21875 615.386719 266.359375 C 611.222656 241.351562 606.917969 215.492188 599.558594 203.816406 C 594.03125 195.042969 592.570312 183.722656 591.394531 174.628906 C 590.222656 165.542969 589.292969 158.367188 585.171875 157.832031 C 584.015625 157.683594 583.675781 158.117188 583.550781 158.28125 C 583.113281 158.847656 582.945312 159.78125 582.976562 160.972656 C 590.3125 169.417969 592.5 186.574219 592.5 189.394531 C 592.5 189.824219 592.5 190.96875 591.453125 191.109375 C 590.417969 191.25 590.113281 190.148438 590.015625 189.789062 C 589.726562 188.746094 588.835938 186.527344 587.800781 183.960938 C 584.351562 175.375 581.277344 167.253906 580.863281 161.910156 C 579.027344 159.96875 577.03125 158.839844 574.90625 158.550781 C 572.355469 158.207031 569.640625 157.648438 566.855469 156.949219 C 560.078125 156.5 553.101562 155.085938 548.355469 153.078125 C 540.917969 149.929688 522.957031 147.789062 518.867188 152.652344 C 517.488281 154.289062 517.875 156.796875 520.011719 160.113281 C 520.324219 160.59375 520.65625 161.058594 521.015625 161.507812 C 527.597656 164.042969 535.222656 168.042969 542.226562 172.085938 C 549.429688 173.550781 556.425781 173.910156 560.429688 174.117188 C 564.148438 174.308594 564.71875 174.335938 565.15625 174.976562 C 565.285156 175.164062 565.351562 175.378906 565.355469 175.59375 C 565.792969 176.746094 569.425781 182.257812 572.09375 186.308594 C 573.75 188.820312 575.3125 191.191406 576.46875 193.023438 C 578.28125 195.898438 578.890625 196.867188 577.957031 197.625 C 577.105469 198.320312 576.261719 197.472656 575.898438 197.109375 C 574.253906 195.464844 561.046875 185.945312 546.363281 177.078125 C 544.695312 176.070312 543.066406 175.105469 541.480469 174.1875 C 540.671875 174.019531 539.863281 173.839844 539.054688 173.644531 C 530.136719 171.484375 523.632812 168.023438 519.679688 163.339844 C 514.945312 161.558594 511.285156 160.78125 508.871094 161.078125 C 507.542969 161.242188 506.660156 161.714844 506.171875 162.53125 C 505.03125 164.429688 504.746094 166.363281 505.300781 168.433594 C 507.683594 177.320312 524.664062 186.746094 541.082031 195.863281 L 542.476562 196.636719 C 552.960938 202.464844 562.109375 211.039062 566.625 215.636719 C 571.808594 220.90625 577.375 227.535156 577.351562 229.632812 C 577.34375 230.15625 577.082031 230.605469 576.644531 230.832031 C 575.859375 231.246094 574.949219 230.761719 574.082031 230.175781 C 573.214844 229.589844 571.679688 228.496094 569.554688 226.980469 C 562.585938 222.003906 549.613281 212.746094 537.242188 205.164062 C 518.703125 193.804688 511.753906 192.46875 509.1875 193.347656 C 508.503906 193.578125 508.109375 193.988281 507.902344 194.671875 C 504.4375 206.230469 525.476562 216.660156 525.6875 216.765625 C 526.210938 217.019531 526.441406 217.632812 526.222656 218.167969 C 526.164062 218.308594 523.582031 224.527344 519.128906 233.101562 C 519.320312 233.066406 519.515625 233.070312 519.726562 233.109375 C 520.386719 233.242188 523.007812 234.148438 527.972656 235.871094 C 534.097656 237.996094 543.730469 241.339844 547.777344 242.375 C 545.382812 238.914062 537.546875 230.359375 533.484375 225.925781 C 531.792969 224.078125 530.332031 222.484375 529.289062 221.3125 C 528.730469 220.683594 528.324219 220.214844 528.054688 219.886719 C 527.671875 219.417969 527.03125 218.628906 527.71875 217.882812 C 528.046875 217.53125 528.625 217.253906 529.539062 217.960938 C 529.898438 218.242188 530.421875 218.605469 531.082031 219.070312 C 537.054688 223.25 552.917969 234.351562 558.722656 257.796875 C 559.421875 260.621094 560.144531 263.414062 560.84375 266.113281 C 564.675781 280.929688 568.363281 295.195312 568.8125 316.03125 Z M 221.65625 530.644531 C 223.28125 530.644531 226.320312 532.816406 234.226562 538.597656 C 246.0625 547.261719 263.953125 560.351562 281.769531 567.273438 C 297.796875 573.503906 320.347656 574.890625 336.441406 574.957031 C 354.851562 575.023438 368.605469 573.503906 369.851562 573.21875 C 370.140625 573.097656 370.472656 573.101562 370.765625 573.234375 C 370.832031 573.265625 370.898438 573.292969 370.972656 573.34375 C 370.96875 556.859375 370.886719 403.828125 369.535156 358.867188 C 369.285156 350.625 367.605469 349.277344 366.890625 349.082031 C 366.007812 348.835938 363.769531 349.386719 358.71875 355.835938 C 355.023438 360.554688 350.84375 367.082031 346.800781 373.390625 C 338.035156 387.085938 332.242188 395.785156 328.164062 395.785156 C 327.855469 395.785156 327.558594 395.738281 327.269531 395.636719 C 325.21875 394.921875 323.335938 392.113281 324.910156 376.714844 C 329.046875 336.257812 334.199219 285.902344 312.070312 265.519531 C 302.027344 256.265625 287.339844 253.589844 267.175781 257.339844 C 260.101562 258.652344 253.410156 260.332031 247.082031 262.3125 C 244.304688 264.339844 241.945312 266.625 240.015625 269.160156 C 218.847656 296.972656 212.050781 363.589844 209.492188 388.667969 C 209.109375 392.429688 208.804688 395.398438 208.558594 397.246094 C 208.214844 399.828125 207.039062 400.480469 206.109375 400.570312 C 204.871094 400.691406 201.09375 401.066406 187.453125 375.628906 C 180.222656 362.144531 173.03125 346.453125 169.964844 337.472656 C 169.519531 336.164062 169.171875 335.546875 168.96875 335.265625 C 167.863281 336.921875 165.972656 345.703125 164.976562 370.027344 C 164.25 387.730469 164.320312 407.476562 165.136719 415.953125 C 165.914062 424.046875 165.300781 427.851562 163.015625 429.09375 C 160.011719 430.722656 155.621094 427.21875 148.34375 421.417969 C 147.015625 420.359375 145.640625 419.265625 144.175781 418.121094 C 142.21875 416.59375 141.605469 416.785156 141.601562 416.785156 C 141.554688 416.816406 141.371094 417.09375 141.332031 417.894531 C 141.179688 421.046875 143.34375 428.359375 147.117188 437.453125 C 149.886719 444.132812 152.519531 449.34375 153.910156 451.566406 C 156.078125 445.4375 162.308594 434.429688 179.304688 432.960938 C 187.441406 432.257812 188.757812 431.449219 188.945312 431.132812 C 188.953125 431.027344 188.78125 430.617188 188.664062 430.347656 C 188.128906 429.074219 187.128906 426.703125 190.789062 424.261719 C 197.804688 419.585938 211.980469 425.566406 222.636719 431.410156 C 226.925781 433.765625 231.824219 442.644531 235.390625 450.234375 C 235.945312 449.929688 236.5625 449.589844 237.261719 449.210938 C 241.214844 447.0625 246.191406 444.464844 250.917969 442.082031 C 258.519531 438.253906 272.066406 431.664062 277.351562 430.558594 C 278.753906 430.261719 279.589844 430.339844 280.15625 430.8125 C 282.636719 432.875 284.542969 434.609375 284.695312 436.535156 C 284.761719 437.378906 284.488281 438.15625 283.878906 438.851562 C 282.195312 440.773438 249.789062 458.074219 239.898438 463.332031 C 239.632812 463.472656 239.324219 463.5 239.039062 463.40625 C 240.964844 466.199219 243 469.101562 244.625 471.410156 C 246.683594 474.347656 248.464844 476.886719 249.414062 478.3125 C 251.546875 481.511719 253.46875 488.414062 251.058594 493.730469 C 249.921875 496.234375 247.332031 499.382812 241.449219 500.160156 C 241.191406 500.195312 240.929688 500.210938 240.660156 500.210938 C 232.605469 500.210938 220.261719 484.996094 209.703125 471.398438 C 214.144531 478.925781 224.292969 495.816406 231.871094 506.101562 C 238.140625 514.613281 241.925781 520.070312 240.75 524.796875 C 240.011719 527.761719 237.371094 530.199219 232.183594 532.691406 C 231.488281 533.027344 230.71875 533.1875 229.882812 533.1875 C 220.367188 533.1875 202.003906 512.398438 182.398438 489.132812 C 180.675781 487.089844 178.941406 485.027344 177.320312 483.132812 C 185.003906 492.871094 198.011719 508.34375 208.441406 520.753906 C 213.304688 526.539062 217.925781 532.03125 221.894531 536.804688 C 221.507812 535.855469 221.101562 534.878906 220.628906 533.835938 C 220.378906 533.277344 219.710938 531.792969 220.710938 530.980469 C 220.980469 530.761719 221.28125 530.644531 221.65625 530.644531 Z M 369.617188 573.355469 C 369.617188 573.355469 369.613281 573.355469 369.613281 573.359375 C 369.613281 573.355469 369.613281 573.355469 369.617188 573.355469 Z M 369.617188 573.351562 Z M 669.453125 560.261719 Z M 156.023438 499.828125 C 156.023438 499.835938 156.023438 499.839844 156.023438 499.847656 C 155.839844 503.710938 167.382812 516.515625 185.433594 532.472656 C 191.699219 538.011719 197.722656 543.035156 202.976562 547.203125 C 198.109375 541.453125 192.121094 534.625 185.816406 527.734375 C 178.339844 519.566406 171.683594 512.707031 166.558594 507.902344 C 159.078125 500.882812 156.660156 499.9375 156.023438 499.828125 Z M 153.335938 535.6875 C 157.070312 538.71875 160.976562 541.804688 164.921875 544.765625 C 164.148438 543.699219 162.808594 542.265625 160.609375 540.449219 C 157.398438 537.796875 154.261719 535.90625 153.5 535.683594 C 153.453125 535.6875 153.394531 535.6875 153.335938 535.6875 Z M 153.691406 535.660156 C 153.679688 535.664062 153.667969 535.667969 153.65625 535.667969 C 153.667969 535.667969 153.679688 535.664062 153.691406 535.660156 Z M 153.699219 535.660156 C 153.699219 535.660156 153.695312 535.660156 153.695312 535.660156 C 153.695312 535.660156 153.695312 535.660156 153.699219 535.660156 Z M 123.160156 498.15625 C 121.367188 502.109375 121 506.75 123.53125 512.296875 C 127.96875 522.007812 135.507812 527.234375 141.050781 529.910156 C 142.34375 530.53125 143.609375 531.054688 144.808594 531.496094 C 141.960938 529.113281 139.289062 526.84375 136.871094 524.792969 C 134.632812 522.894531 132.519531 521.097656 130.710938 519.589844 C 122.425781 512.683594 122.59375 503.785156 123.160156 498.15625 Z M 149.269531 458.082031 C 147.816406 458.082031 145.472656 458.519531 143.496094 459.707031 C 141.277344 461.035156 132.945312 468.136719 124.933594 476.242188 C 111.363281 489.96875 110.941406 494.082031 111.132812 495.011719 C 111.617188 497.351562 112.199219 498.027344 112.605469 498.179688 C 113.761719 498.617188 116.664062 496.453125 120.023438 493.941406 C 120.464844 493.613281 120.925781 493.269531 121.402344 492.914062 C 122.429688 492.152344 123.601562 491.390625 124.632812 491.8125 C 127.113281 488.796875 130.09375 486.277344 132.609375 484.152344 C 135.113281 482.035156 137.703125 479.851562 137.753906 478.632812 C 137.996094 473.101562 140.894531 465.375 148.304688 460.261719 C 149.90625 459.160156 150.355469 458.507812 150.480469 458.257812 C 150.253906 458.148438 149.828125 458.082031 149.269531 458.082031 Z M 190.078125 485.929688 C 191.785156 485.992188 197.757812 484.285156 203.386719 482.34375 C 201.0625 480.335938 198.570312 477.554688 197.675781 475.785156 C 197.15625 474.757812 197.039062 473.902344 197.324219 473.222656 C 196.714844 473.511719 196.277344 473.738281 196.078125 473.878906 C 194.507812 476.269531 190.273438 483.863281 190.078125 485.929688 Z M 207.5625 482.628906 Z M 206.96875 482.324219 C 207.222656 482.484375 207.417969 482.585938 207.535156 482.621094 C 208.421875 482.609375 209.679688 482.332031 210.699219 482.054688 C 209.699219 480.707031 208 478.386719 206.054688 475.648438 C 207.417969 478.125 207.160156 481.089844 206.96875 482.324219 Z M 199.386719 474.183594 C 199.511719 474.71875 200.261719 476.203125 202.785156 478.765625 C 203.546875 479.542969 204.269531 480.210938 204.917969 480.765625 C 204.972656 479.492188 204.835938 477.71875 203.914062 476.34375 C 203.148438 475.203125 201.976562 474.515625 200.335938 474.242188 C 199.839844 474.160156 199.546875 474.164062 199.386719 474.183594 Z M 200.050781 471.996094 C 200.320312 472.015625 200.546875 472.054688 200.695312 472.078125 C 202.574219 472.394531 204.070312 473.164062 205.152344 474.375 C 204.359375 473.242188 203.535156 472.0625 202.714844 470.859375 C 201.773438 471.253906 200.871094 471.636719 200.050781 471.996094 Z M 195.824219 454.617188 C 196.109375 455.832031 197.496094 459.1875 203.527344 468.148438 C 204.316406 467.824219 205.171875 467.476562 206.105469 467.105469 C 206.179688 467.074219 206.253906 467.054688 206.328125 467.042969 C 202.132812 461.625 197.691406 455.960938 195.824219 454.617188 Z M 232.992188 454.144531 C 233.664062 455.457031 235.703125 458.539062 238.066406 461.984375 C 237.199219 459.765625 235.917969 456.664062 234.394531 453.3125 C 233.796875 453.65625 233.324219 453.9375 232.992188 454.144531 Z M 236.316406 452.230469 C 238.007812 455.957031 239.308594 459.164062 239.960938 460.816406 C 256.539062 451.996094 280.726562 438.882812 282.242188 437.390625 C 282.5 437.097656 282.523438 436.871094 282.507812 436.707031 C 282.421875 435.574219 280.3125 433.792969 278.851562 432.578125 C 278.308594 432.519531 274.671875 432.753906 255.011719 442.488281 C 247.390625 446.265625 240.433594 449.945312 236.316406 452.230469 Z M 512.164062 251 C 512.226562 251.171875 512.589844 251.8125 514.714844 253.171875 C 516.460938 254.289062 518.90625 255.585938 521.492188 256.957031 C 525.742188 259.214844 530.5625 261.769531 534.433594 264.613281 C 541.160156 269.550781 545.859375 276.582031 550.832031 284.027344 C 552.9375 287.179688 555.117188 290.441406 557.453125 293.503906 C 560.785156 297.882812 563.773438 303.902344 566.382812 310.042969 C 565.429688 292.609375 562.132812 279.855469 558.722656 266.664062 C 558.019531 263.957031 557.296875 261.160156 556.59375 258.324219 C 555.128906 252.398438 552.992188 247.289062 550.535156 242.898438 C 550.734375 243.46875 550.679688 243.824219 550.527344 244.144531 C 550.34375 244.53125 549.890625 244.929688 549.1875 244.878906 C 546.9375 244.722656 537.921875 241.644531 527.253906 237.941406 C 523.875 236.769531 520.660156 235.65625 519.59375 235.339844 C 518.84375 236.207031 517.425781 239.757812 516.464844 242.160156 C 514.957031 245.9375 513.53125 249.503906 512.164062 251 Z M 512.136719 251.03125 Z M 454.132812 3.316406 C 431.609375 3.316406 409.644531 8.582031 389.925781 19.078125 C 362.292969 33.785156 343.105469 57.046875 338.597656 81.304688 C 332.429688 114.488281 310.78125 169.457031 296.457031 205.828125 C 289.988281 222.253906 283.828125 237.894531 282.4375 243.363281 C 285.652344 239.433594 292.875 227.476562 298.855469 217.570312 C 317.289062 187.054688 324.011719 177.089844 327.503906 178.195312 C 329.277344 178.761719 329.085938 181.429688 329.015625 182.4375 C 327.835938 198.933594 336.839844 236.640625 342.136719 242.011719 C 342.566406 242.445312 342.769531 242.457031 342.773438 242.457031 C 342.78125 242.457031 343.480469 242.171875 344.125 239.230469 C 345.300781 233.882812 345.460938 223.953125 345.648438 212.457031 C 346.160156 181.339844 346.859375 138.726562 367.320312 130.476562 C 379.3125 125.640625 383.199219 116.933594 386.957031 108.511719 C 391.40625 98.542969 395.605469 89.128906 413.457031 91.054688 C 428.734375 92.699219 436.195312 99.835938 443.414062 106.738281 C 451.417969 114.390625 458.980469 121.621094 476.734375 122.480469 C 503.785156 123.785156 518.605469 133.4375 527.460938 139.207031 C 529.972656 140.84375 531.957031 142.136719 533.453125 142.703125 C 534.6875 143.171875 536.355469 143.847656 538.285156 144.628906 C 545.660156 147.613281 556.949219 152.183594 567.214844 154.78125 C 573.847656 155.207031 580.195312 154.683594 583.65625 152.839844 C 584.09375 152.605469 585.484375 150.601562 586.613281 144.222656 C 587.660156 138.332031 588.066406 130.894531 587.757812 123.289062 C 586.820312 100.136719 577.910156 43.371094 515.59375 16.371094 C 495.492188 7.660156 474.582031 3.316406 454.132812 3.316406 Z M 536.394531 225.855469 C 543.667969 233.824219 547.382812 238.113281 549.171875 240.582031 C 545.101562 234.023438 540.382812 229.238281 536.394531 225.855469 Z M 577.730469 195.820312 Z M 547.511719 175.207031 C 557.882812 181.476562 567.976562 188.351562 573.464844 192.398438 C 572.457031 190.839844 571.308594 189.097656 570.265625 187.515625 C 565.597656 180.433594 563.902344 177.746094 563.363281 176.5 C 562.714844 176.429688 561.5 176.367188 560.316406 176.304688 C 557.335938 176.152344 552.675781 175.914062 547.511719 175.207031 Z M 583.78125 165.929688 C 585.046875 171.015625 587.527344 177.382812 589.285156 181.765625 C 588.292969 176.882812 586.53125 170.695312 583.78125 165.929688 Z M 563.78125 176.5625 Z M 565.300781 175.980469 C 565.300781 175.984375 565.296875 175.984375 565.296875 175.988281 C 565.296875 175.984375 565.300781 175.984375 565.300781 175.980469 Z M 526.121094 166.070312 C 528.210938 167.441406 530.554688 168.570312 533.03125 169.507812 C 530.585938 168.21875 528.28125 167.074219 526.121094 166.070312 Z M 526.121094 166.070312 " fill-opacity="1" fill-rule="nonzero"/></g></g></g></g></svg>