<svg xmlns="http://www.w3.org/2000/svg" xmlns:xlink="http://www.w3.org/1999/xlink" width="1000" zoomAndPan="magnify" viewBox="0 0 750 749.999995" height="1000" preserveAspectRatio="xMidYMid meet" version="1.0"><path fill="#000000" d="M 847.085938 461.734375 L 544.496094 461.734375 C 538.230469 454.953125 532.308594 448.5 530.101562 445.976562 C 526.367188 441.699219 523.597656 439.753906 521.125 439.667969 C 519.492188 439.617188 517.957031 440.363281 516.285156 442.035156 C 513.226562 445.09375 513.945312 449.550781 518.210938 453.953125 C 518.550781 454.300781 518.992188 454.75 519.507812 455.269531 C 516.824219 454.078125 513.296875 453.207031 510.011719 452.394531 C 508.847656 452.101562 507.726562 451.828125 506.714844 451.550781 C 503.191406 450.589844 492.988281 450.390625 483.984375 450.214844 C 477.859375 450.097656 472.566406 449.996094 470.847656 449.671875 C 469.375 449.394531 467.070312 448.3125 464.15625 446.941406 C 461.554688 445.714844 458.472656 444.265625 455.101562 442.988281 C 455.144531 442.847656 455.144531 442.695312 455.035156 442.578125 C 450.210938 437.398438 443.355469 436.300781 438.820312 435.578125 C 436.625 435.226562 434.730469 434.921875 434.183594 434.296875 C 432.957031 432.898438 429.472656 432.28125 425.433594 431.570312 C 422.808594 431.109375 420.09375 430.628906 417.675781 429.894531 C 414.488281 428.921875 409.683594 424.996094 405.035156 421.191406 C 400.78125 417.714844 396.761719 414.429688 393.863281 413.234375 C 393.828125 413.222656 393.796875 413.238281 393.761719 413.234375 C 393.363281 409.792969 392.929688 406.3125 392.472656 402.835938 L 399.894531 392.355469 C 395.1875 409.972656 414.171875 418.976562 414.375 419.070312 C 414.433594 419.097656 414.492188 419.109375 414.554688 419.109375 C 414.695312 419.109375 414.828125 419.039062 414.910156 418.917969 C 415.023438 418.742188 414.996094 418.507812 414.839844 418.367188 C 414.789062 418.320312 409.679688 413.511719 411.234375 401.085938 C 412.726562 389.160156 415.5 366.957031 443.683594 352.324219 C 458.421875 344.671875 462.496094 336.105469 463.898438 327.019531 C 463.980469 338.105469 464.03125 345.433594 461.949219 353.765625 C 455.460938 379.710938 426.367188 392.351562 425.023438 392.921875 C 425.007812 392.925781 424.992188 392.933594 424.976562 392.941406 C 424.761719 393.03125 424.660156 393.28125 424.75 393.496094 C 424.816406 393.664062 424.976562 393.757812 425.140625 393.757812 C 425.195312 393.757812 425.25 393.75 425.304688 393.726562 C 425.308594 393.726562 425.320312 393.71875 425.34375 393.710938 C 440.226562 387.46875 474.980469 372.871094 474.980469 344.242188 C 474.980469 323.425781 476.011719 301.070312 477.28125 294.257812 C 482.476562 287.054688 484.164062 286.15625 487.992188 285.269531 C 491.609375 284.4375 494.453125 286.65625 494.480469 286.675781 C 494.550781 286.734375 494.636719 286.753906 494.722656 286.761719 C 494.730469 286.761719 494.738281 286.769531 494.746094 286.769531 C 494.757812 286.769531 494.765625 286.757812 494.777344 286.757812 C 494.808594 286.757812 494.839844 286.761719 494.867188 286.753906 C 496.683594 286.214844 498.015625 285.113281 498.816406 283.476562 C 500.742188 279.5625 499.128906 273.703125 498.414062 271.542969 C 499.445312 271.6875 501.019531 271.875 502.207031 271.847656 C 506.21875 272.402344 510.9375 272.773438 514.671875 269.695312 C 515.230469 269.234375 515.464844 268.078125 515.820312 266.320312 C 516.460938 263.171875 517.335938 258.863281 520.519531 257.550781 C 521.871094 256.988281 524.671875 257.847656 527.636719 258.757812 C 531.191406 259.84375 535.222656 261.082031 538.050781 260.246094 C 541.253906 259.304688 544.175781 254.359375 544.460938 250.894531 C 544.511719 250.265625 544.570312 249.457031 544.640625 248.503906 C 545.226562 240.527344 546.785156 219.34375 550.734375 215.46875 C 554.585938 211.6875 563.054688 207.417969 567.605469 205.121094 C 579.261719 199.242188 600.632812 155.066406 598.035156 142.40625 C 598.332031 142.136719 599.015625 141.5 599.933594 140.578125 C 603.945312 137.726562 610.90625 132.285156 613.945312 126.921875 C 616.082031 123.15625 616.117188 118.761719 614.050781 114.863281 C 612.773438 112.449219 610.03125 109.074219 604.300781 106.210938 C 604.886719 103.132812 606.507812 89.78125 593.664062 78.203125 C 593.027344 77.039062 581.574219 56.316406 568.300781 43.90625 C 554.753906 31.242188 543.039062 25.054688 535.269531 21.484375 C 535.382812 21.257812 535.492188 20.960938 535.511719 20.554688 C 535.570312 19.398438 534.890625 18.03125 533.5625 16.507812 C 533.554688 16.308594 533.429688 16.128906 533.226562 16.097656 C 533.222656 16.097656 533.214844 16.097656 533.210938 16.097656 C 533.164062 16.050781 533.136719 16.003906 533.089844 15.957031 C 529.414062 12.109375 511.539062 4.035156 507.089844 3.738281 C 507.050781 3.738281 506.996094 3.738281 506.941406 3.738281 C 505.1875 3.738281 501.949219 5.5 497.992188 8.453125 C 497.976562 8.246094 497.832031 8.070312 497.617188 8.054688 C 495.402344 7.882812 492.882812 7.566406 489.960938 7.195312 C 469.808594 4.648438 436.066406 0.394531 399.6875 30.910156 C 384.980469 43.246094 374.191406 55.929688 363.757812 68.199219 C 363.546875 68.449219 363.332031 68.699219 363.117188 68.953125 C 363.101562 68.964844 363.070312 68.964844 363.054688 68.984375 C 362.625 69.5 362.179688 70.039062 361.714844 70.597656 C 355.363281 78.054688 349.039062 85.355469 341.917969 92.375 C 341.910156 92.382812 341.902344 92.378906 341.898438 92.382812 L 341.675781 92.613281 C 328.136719 105.914062 311.691406 118.191406 286.691406 128.542969 C 229.351562 152.285156 198.28125 165.578125 173.671875 184.914062 C 173.582031 184.984375 173.53125 185.085938 173.515625 185.1875 C 158.695312 182.703125 146.207031 181.796875 142.386719 183.429688 C 134.070312 186.996094 133.433594 194.570312 133.128906 198.207031 C 133.058594 199.023438 133 199.730469 132.878906 200.089844 C 132.734375 200.523438 131.59375 201.386719 130.269531 202.386719 C 125.882812 205.710938 117.714844 211.898438 115.039062 223.664062 C 111.855469 237.675781 117.195312 248.449219 118.417969 250.664062 C 115.207031 252.191406 95.582031 262.429688 102.214844 281.664062 C 107.898438 298.144531 115.589844 307.382812 118.46875 310.445312 C 118.175781 310.859375 117.882812 311.265625 117.59375 311.683594 C 97.769531 340.070312 76.925781 378.816406 55.628906 426.855469 C 29.875 484.953125 9.648438 542.875 0 571.84375 L 0 749.816406 L 847.085938 749.816406 Z M 432.855469 527.277344 C 432.847656 527.277344 432.84375 527.289062 432.832031 527.289062 C 430.796875 524.898438 428.761719 523.074219 426.851562 522.03125 C 426.203125 521.675781 425.574219 521.417969 424.96875 521.234375 C 429.949219 519.980469 435.65625 518.839844 441.632812 517.644531 L 443.042969 517.363281 C 450.410156 515.890625 458.898438 508.820312 460.582031 507.367188 C 464.082031 509.777344 466.5 511.402344 471.507812 512.675781 L 462.515625 524.019531 C 456.183594 525.378906 448.777344 525.902344 442.777344 526.328125 C 438.75 526.613281 435.265625 526.855469 432.855469 527.277344 Z M 463.859375 523.699219 C 464.296875 523.59375 464.734375 523.488281 465.160156 523.371094 C 464.722656 523.488281 464.292969 523.613281 463.839844 523.722656 Z M 372.734375 629.917969 L 393.089844 624.066406 L 338.910156 700.519531 C 337.875 689.113281 336.074219 643.066406 335.894531 638.46875 C 352.375 636.367188 367.421875 633.925781 372.734375 629.917969 Z M 372.734375 629.917969 " fill-opacity="1" fill-rule="nonzero"/><path fill="#f8d1b4" d="M 596.933594 141.316406 C 594.957031 132.855469 593.285156 125.53125 569.523438 126.394531 C 564.4375 126.578125 559.808594 127.4375 555.496094 128.605469 C 554.550781 128.902344 553.625 129.199219 552.65625 129.503906 C 552.589844 129.527344 552.527344 129.5 552.464844 129.488281 C 548.222656 130.820312 544.292969 132.398438 540.601562 133.902344 C 530.785156 137.898438 522.292969 141.347656 512.195312 138.804688 C 511.46875 139.691406 508.496094 142.832031 502.953125 142.832031 C 501.054688 142.832031 498.847656 142.449219 496.332031 141.492188 C 494.960938 142.628906 485.84375 149.8125 475.136719 149.859375 C 473.976562 153.023438 472.449219 155.972656 470.640625 158.722656 C 470.644531 158.734375 470.652344 158.738281 470.65625 158.75 C 470.671875 158.953125 470.53125 159.105469 470.34375 159.164062 C 466.050781 165.527344 460.144531 170.679688 453.003906 174.046875 C 447.136719 176.8125 440.863281 178.203125 434.574219 178.203125 C 429.738281 178.203125 424.894531 177.371094 420.210938 175.71875 C 419.890625 176.425781 418.898438 180.761719 421.019531 206.496094 C 422.621094 225.886719 424.34375 246.917969 422.164062 265.816406 C 423.984375 268.507812 440.691406 292.90625 452.046875 298.167969 C 462.980469 303.238281 470.761719 301.859375 476.539062 293.839844 C 481.929688 286.351562 483.808594 285.363281 487.804688 284.4375 C 489.800781 283.976562 491.539062 284.335938 492.816406 284.828125 C 491.71875 283.492188 490.347656 281.589844 489.589844 279.570312 C 488.253906 276 486.300781 265.425781 486.21875 264.976562 C 486.191406 264.851562 486.230469 264.71875 486.316406 264.621094 C 486.398438 264.523438 486.535156 264.480469 486.652344 264.476562 C 486.765625 264.476562 497.65625 264.914062 504.914062 264.253906 C 510.847656 263.707031 513.527344 267 514.429688 268.496094 C 514.628906 267.929688 514.8125 267.035156 514.992188 266.152344 C 515.632812 263.003906 516.59375 258.25 520.203125 256.765625 C 521.835938 256.089844 524.644531 256.949219 527.894531 257.941406 C 531.335938 258.996094 535.238281 260.1875 537.816406 259.429688 C 540.628906 258.605469 543.359375 254.007812 543.617188 250.824219 C 543.667969 250.199219 543.726562 249.394531 543.796875 248.441406 C 544.445312 239.621094 545.964844 218.964844 550.148438 214.863281 C 554.09375 210.992188 562.316406 206.84375 567.230469 204.363281 C 578.414062 198.71875 599.964844 154.089844 597.171875 142.34375 Z M 521.394531 188.105469 C 521.945312 188.289062 534.929688 192.648438 540.730469 197.109375 C 540.917969 197.253906 540.953125 197.519531 540.808594 197.707031 C 540.726562 197.816406 540.597656 197.875 540.472656 197.875 C 540.378906 197.875 540.289062 197.84375 540.210938 197.785156 C 534.527344 193.414062 521.261719 188.960938 521.128906 188.917969 C 520.902344 188.839844 520.78125 188.597656 520.859375 188.378906 C 520.929688 188.15625 521.171875 188.035156 521.394531 188.105469 Z M 529.511719 256.117188 C 529.445312 256.152344 529.371094 256.171875 529.300781 256.171875 C 529.152344 256.171875 529.007812 256.09375 528.929688 255.957031 L 528.765625 255.671875 C 527.121094 252.785156 526.625 251.910156 521.023438 251.707031 C 515.414062 251.496094 511.289062 251.140625 509.300781 248.402344 C 507.34375 245.714844 509.074219 240.519531 511.816406 238.007812 C 511.988281 237.851562 512.257812 237.863281 512.417969 238.035156 C 512.578125 238.210938 512.566406 238.480469 512.390625 238.640625 C 509.921875 240.902344 508.328125 245.621094 509.992188 247.902344 C 511.605469 250.125 514.847656 250.625 521.050781 250.851562 C 527.132812 251.078125 527.828125 252.300781 529.507812 255.25 L 529.671875 255.535156 C 529.785156 255.738281 529.71875 255.996094 529.511719 256.117188 Z M 553.425781 204.277344 C 553.386719 204.277344 553.34375 204.273438 553.300781 204.257812 C 551.558594 203.734375 550.273438 203.3125 549.230469 202.972656 C 546.703125 202.144531 545.65625 201.800781 542.96875 201.59375 C 539.09375 201.296875 537.230469 201.929688 535.601562 204.105469 C 535.519531 204.210938 535.402344 204.257812 535.28125 204.261719 C 535.386719 205.570312 536.039062 209.796875 540.023438 212.785156 C 540.023438 212.785156 536.027344 210.519531 531.089844 206.140625 C 529.515625 207.203125 526.8125 208.738281 523.636719 209.390625 L 525.175781 211.488281 C 525.265625 211.605469 525.285156 211.757812 525.234375 211.890625 C 525.183594 212.027344 525.066406 212.125 524.925781 212.15625 C 524.886719 212.164062 520.929688 213.050781 518.769531 214.132812 C 518.710938 214.164062 518.644531 214.175781 518.582031 214.175781 C 518.425781 214.175781 518.273438 214.089844 518.199219 213.941406 C 518.09375 213.730469 518.179688 213.476562 518.390625 213.371094 C 520.128906 212.5 522.875 211.773438 524.105469 211.476562 L 519.699219 205.476562 C 519.558594 205.289062 519.597656 205.023438 519.789062 204.882812 C 519.980469 204.742188 520.246094 204.78125 520.386719 204.972656 L 521.40625 206.363281 C 522.644531 205.898438 526.289062 204.625 529.230469 204.425781 C 528.273438 203.507812 527.296875 202.53125 526.324219 201.46875 C 524.054688 199.003906 521.164062 195.679688 518.792969 192.921875 C 518.5625 194.117188 518.042969 198.023438 519.769531 202.957031 C 519.769531 202.957031 515.304688 197.597656 514.410156 187.769531 C 514.410156 187.769531 531.109375 199.089844 534.980469 203.523438 C 536.78125 201.160156 538.90625 200.425781 543.035156 200.746094 C 545.824219 200.960938 546.972656 201.339844 549.496094 202.164062 C 550.53125 202.503906 551.808594 202.921875 553.546875 203.441406 C 553.773438 203.511719 553.898438 203.75 553.832031 203.972656 C 553.777344 204.15625 553.609375 204.277344 553.425781 204.277344 Z M 561.355469 205.433594 C 561.355469 205.433594 557.277344 206.9375 554.878906 204.707031 L 556.441406 204.371094 C 555.546875 203.925781 554.597656 203.199219 554.597656 203.199219 C 555.601562 203.644531 556.21875 203.363281 556.21875 203.363281 C 554.207031 202.359375 553.203125 200.40625 553.203125 200.40625 C 554.765625 200.519531 556.550781 200.683594 556.550781 200.683594 C 555.210938 200.683594 553.3125 199.066406 553.3125 199.066406 C 554.097656 199.625 557.113281 199.792969 557.113281 199.792969 C 557.113281 199.792969 554.320312 198.898438 553.425781 197.667969 C 552.535156 196.441406 552.421875 192.085938 549.964844 188.960938 C 547.507812 185.832031 525.171875 175.78125 525.171875 175.78125 C 525.171875 175.78125 528.523438 175.890625 535.894531 178.015625 C 543.261719 180.136719 548.515625 182.035156 548.515625 182.035156 C 546.726562 181.589844 542.929688 180.472656 542.929688 180.472656 C 542.929688 180.472656 553.203125 184.15625 556.667969 187.394531 C 560.128906 190.632812 561.523438 199.960938 560.855469 200.964844 C 560.183594 201.96875 557.226562 201.800781 557.558594 201.914062 C 557.894531 202.023438 561.414062 202.417969 561.414062 202.417969 C 559.90625 203.476562 556.554688 202.585938 556.554688 202.585938 C 557.335938 203.367188 561.46875 203.925781 561.46875 203.925781 C 560.6875 204.371094 558.007812 204.816406 558.007812 204.816406 C 559.007812 205.375 561.355469 205.433594 561.355469 205.433594 Z M 375.617188 257.542969 L 373.695312 287.726562 C 373.660156 287.792969 373.628906 287.867188 373.59375 287.933594 C 372.34375 286.34375 365.597656 277.925781 354.863281 267.171875 C 359.539062 265.488281 364.324219 263.554688 369.242188 261.421875 C 371.488281 260.449219 373.601562 259.117188 375.617188 257.542969 Z M 474.597656 501.992188 C 474.222656 501.460938 474.566406 500.597656 474.917969 499.96875 C 476.6875 496.8125 482.863281 492.226562 486.058594 492.226562 C 486.125 492.226562 486.191406 492.226562 486.253906 492.234375 C 487.066406 492.28125 487.53125 492.609375 487.710938 493.257812 C 488.273438 495.257812 485.882812 499.695312 483.894531 501.085938 C 481.335938 502.878906 479.355469 503.777344 477.84375 503.835938 C 476.558594 503.886719 475.527344 503.320312 474.597656 501.992188 Z M 533.230469 475.40625 C 534.296875 477.753906 534.667969 483.40625 534.765625 485.296875 C 533.121094 485.851562 531.488281 486.390625 530.011719 486.855469 C 529.457031 487.027344 528.917969 487.21875 528.378906 487.417969 C 528.113281 485.425781 526.710938 475.019531 525.425781 467.210938 C 529.109375 469.4375 532.097656 472.917969 533.230469 475.40625 Z M 535.769531 485.859375 C 540.808594 484.15625 545.769531 482.378906 546.726562 482.035156 C 547.671875 482.960938 548.328125 483.597656 548.59375 483.859375 C 543.558594 484.589844 539.070312 485.308594 535.769531 485.859375 Z M 418.199219 453.226562 C 414.945312 459.464844 411.863281 479.753906 414.734375 486.011719 C 416.4375 489.734375 428.09375 493.371094 438.375 496.582031 C 445.253906 498.726562 451.75 500.753906 454.949219 502.671875 C 457.28125 504.074219 459.058594 505.28125 460.625 506.359375 C 460.738281 506.363281 460.847656 506.40625 460.929688 506.5 C 460.953125 506.527344 460.945312 506.5625 460.960938 506.589844 C 460.964844 506.59375 460.972656 506.597656 460.976562 506.601562 C 464.570312 509.074219 466.945312 510.710938 472.210938 511.980469 C 478.414062 513.480469 480.753906 514.367188 481.472656 514.679688 C 481.648438 514.566406 481.820312 514.453125 481.996094 514.339844 C 482.789062 513.820312 483.605469 513.289062 484.445312 512.746094 C 484.378906 512.765625 484.320312 512.789062 484.257812 512.808594 C 483.578125 512.996094 482.90625 513.082031 482.246094 513.082031 C 477.703125 513.082031 473.59375 508.992188 469.914062 505.324219 C 467.773438 503.191406 465.75 501.179688 463.890625 500.207031 C 462.976562 499.726562 461.972656 499.21875 460.929688 498.691406 C 455.316406 495.855469 448.953125 492.644531 447.132812 489.335938 C 444.164062 483.933594 445.554688 471.894531 449.425781 469.511719 C 449.628906 469.390625 449.886719 469.453125 450.011719 469.652344 C 450.132812 469.851562 450.074219 470.117188 449.871094 470.238281 C 446.714844 472.179688 444.996094 483.675781 447.878906 488.925781 C 449.574219 492.003906 456.082031 495.289062 461.316406 497.929688 C 462.363281 498.460938 463.367188 498.96875 464.289062 499.449219 C 466.261719 500.484375 468.328125 502.539062 470.515625 504.71875 C 474.566406 508.753906 479.148438 513.328125 484.03125 511.988281 C 491.597656 509.898438 494.382812 502.25 493.882812 497.738281 C 493.480469 494.132812 487.152344 487.390625 482.960938 482.929688 C 481.765625 481.65625 480.734375 480.558594 480.078125 479.777344 C 477.09375 476.257812 474.476562 461.488281 474.363281 460.859375 C 474.324219 460.625 474.476562 460.402344 474.710938 460.363281 C 474.949219 460.3125 475.164062 460.480469 475.203125 460.710938 C 475.230469 460.863281 477.890625 475.878906 480.726562 479.226562 C 481.371094 479.988281 482.394531 481.082031 483.582031 482.34375 C 484.046875 482.835938 484.539062 483.363281 485.042969 483.902344 C 485.589844 483.40625 486.800781 482.585938 488.472656 481.460938 C 489.832031 480.546875 491.371094 479.507812 492.988281 478.355469 C 496.542969 475.816406 497.621094 468.550781 497.632812 468.476562 C 497.664062 468.242188 497.878906 468.070312 498.113281 468.117188 C 498.34375 468.148438 498.503906 468.363281 498.472656 468.597656 C 498.429688 468.902344 497.367188 476 493.703125 478.867188 C 493.949219 480.1875 495.453125 487.128906 499.804688 488.730469 C 504.625 490.503906 507.25 490.574219 507.386719 490.574219 C 506.253906 485.5625 505.070312 479.84375 504.851562 478.785156 C 504.804688 478.554688 504.953125 478.328125 505.183594 478.28125 C 505.421875 478.242188 505.640625 478.382812 505.6875 478.613281 C 507.0625 485.300781 509.222656 495.25 510.003906 497.554688 C 512.136719 496.304688 514.023438 495.175781 515.707031 494.167969 C 520.722656 491.171875 524.128906 489.148438 527.5625 487.746094 C 527.402344 486.539062 525.820312 474.75 524.453125 466.550781 C 524.382812 466.445312 524.359375 466.328125 524.394531 466.203125 C 523.828125 462.835938 523.300781 460.121094 522.933594 459.089844 C 521.902344 456.207031 515.199219 454.550781 509.8125 453.214844 C 508.640625 452.925781 507.511719 452.648438 506.496094 452.367188 C 503.074219 451.433594 492.484375 451.230469 483.972656 451.0625 C 477.808594 450.945312 472.484375 450.839844 470.695312 450.503906 C 469.113281 450.207031 466.769531 449.105469 463.800781 447.707031 C 458.597656 445.253906 451.476562 441.902344 443.972656 440.882812 C 432.332031 439.289062 423.179688 443.679688 418.199219 453.226562 Z M 474.175781 499.554688 C 476.171875 495.988281 482.734375 491.167969 486.308594 491.382812 C 487.789062 491.476562 488.335938 492.328125 488.535156 493.027344 C 489.242188 495.550781 486.464844 500.332031 484.386719 501.785156 C 481.652344 503.703125 479.582031 504.625 477.878906 504.691406 C 477.8125 504.691406 477.75 504.695312 477.683594 504.695312 C 476.160156 504.695312 474.953125 503.988281 473.898438 502.484375 C 473.550781 501.988281 473.320312 501.074219 474.175781 499.554688 Z M 590.84375 462.988281 C 592.0625 463.984375 592.820312 466.753906 592.734375 469.886719 C 592.605469 474.527344 590.714844 478.664062 587.671875 481.058594 C 579.371094 480.988281 571.230469 481.304688 563.34375 482.046875 C 562.6875 481.34375 560.828125 479.347656 558.28125 476.605469 C 560.53125 475.273438 562.632812 474.878906 565.0625 474.433594 C 566.828125 474.109375 568.828125 473.746094 571.1875 472.957031 C 573.457031 472.203125 576.53125 470.167969 579.785156 468.015625 C 584.246094 465.066406 589.300781 461.726562 590.84375 462.988281 Z M 587.976562 481.914062 C 589.847656 481.929688 591.707031 481.921875 593.59375 481.984375 C 597.007812 482.089844 599.609375 483.226562 601.339844 485.363281 C 604.78125 489.617188 603.667969 496.40625 603.527344 497.167969 C 602.992188 500.121094 592.609375 505.34375 588.210938 507.308594 C 587.761719 506.644531 586.5625 505.34375 584.253906 505.554688 C 583.628906 505.617188 583.03125 505.667969 582.460938 505.71875 C 578.714844 506.046875 576.242188 506.265625 575.433594 507.546875 C 575.101562 508.078125 575.082031 508.722656 575.382812 509.515625 C 575.992188 511.152344 579.636719 512.410156 583.492188 513.742188 C 586.757812 514.871094 590.460938 516.148438 591.089844 517.402344 C 591.390625 518.007812 591.542969 518.933594 591.585938 520.011719 C 591.585938 520.027344 591.589844 520.039062 591.589844 520.058594 C 591.714844 523.609375 590.574219 528.8125 589.054688 530.078125 C 587.8125 531.113281 584.109375 531.816406 581.402344 532.328125 C 579.332031 532.71875 578.136719 532.953125 577.683594 533.257812 C 577.507812 533.371094 577.410156 533.550781 577.40625 533.75 C 577.390625 534.324219 578.140625 534.898438 579.988281 536.261719 C 582.308594 537.96875 585.8125 540.554688 586.421875 542.984375 C 587.441406 547.066406 583.964844 554.386719 581.960938 555.722656 C 579.933594 557.074219 577.527344 557.4375 577.503906 557.4375 C 577.367188 557.457031 577.25 557.542969 577.183594 557.664062 C 577.121094 557.785156 577.121094 557.929688 577.183594 558.050781 C 577.210938 558.113281 580.210938 564.238281 576.546875 567.898438 C 572.59375 571.855469 565.054688 576.773438 557.128906 578.839844 C 548.273438 581.152344 520.386719 587.355469 508.808594 585.609375 C 506.890625 585.316406 505.070312 584.925781 503.3125 584.546875 C 497.386719 583.265625 491.792969 582.058594 482.957031 584.550781 C 472.664062 587.445312 447.929688 597.976562 443.351562 599.9375 C 447.222656 592.472656 450.667969 581.84375 449.265625 568.867188 C 447.488281 552.441406 440.535156 536.75 433.472656 528.042969 C 435.820312 527.675781 439.082031 527.441406 442.839844 527.179688 C 452.855469 526.476562 465.324219 525.597656 472.234375 521.5 C 475.667969 519.464844 478.609375 517.5625 481.652344 515.578125 C 481.730469 515.554688 481.796875 515.511719 481.851562 515.449219 C 482.050781 515.316406 482.25 515.1875 482.453125 515.054688 C 487.636719 511.675781 493.507812 507.84375 502.886719 502.609375 C 505.460938 501.171875 507.75 499.855469 509.824219 498.648438 C 509.894531 498.644531 509.964844 498.628906 510.03125 498.589844 C 510.074219 498.5625 510.085938 498.515625 510.113281 498.476562 C 512.382812 497.152344 514.375 495.960938 516.140625 494.90625 C 522.269531 491.242188 525.96875 489.027344 530.242188 487.675781 C 530.609375 487.609375 542.269531 485.503906 555.507812 483.761719 C 557.984375 483.4375 560.503906 483.179688 563.035156 482.9375 C 563.199219 483.074219 563.429688 483.085938 563.589844 482.9375 C 563.609375 482.917969 563.605469 482.894531 563.621094 482.871094 C 571.304688 482.15625 579.230469 481.847656 587.308594 481.90625 C 587.390625 482.007812 587.511719 482.070312 587.636719 482.070312 C 587.726562 482.070312 587.8125 482.042969 587.886719 481.988281 C 587.917969 481.964844 587.945312 481.9375 587.976562 481.914062 Z M 587.976562 481.914062 " fill-opacity="1" fill-rule="nonzero"/><path fill="#685ab3" d="M 629.011719 495.789062 L 614.132812 484.875 L 761.433594 484.867188 L 816.046875 495.789062 Z M 388.6875 499 C 386.828125 507.664062 385.339844 513.804688 385.222656 514.273438 C 385.816406 518.222656 386.574219 521.710938 387.558594 524.558594 C 387.613281 524.636719 389.492188 527.964844 390.59375 530.808594 C 401.070312 528.417969 414.894531 524.4375 420.839844 521.464844 C 420.914062 521.429688 420.992188 521.40625 421.066406 521.371094 C 403.054688 518.769531 393.238281 511.988281 388.6875 499 Z M 396.140625 452.699219 C 395.324219 465.753906 391.839844 484.148438 389.019531 497.441406 C 389.027344 497.460938 389.050781 497.46875 389.054688 497.484375 C 393.425781 511.367188 403.539062 518.332031 422.875 520.773438 C 422.933594 520.78125 422.96875 520.828125 423.015625 520.855469 C 428.410156 519.417969 434.773438 518.144531 441.464844 516.808594 L 442.875 516.527344 C 449.703125 515.160156 457.839844 508.570312 459.855469 506.867188 C 459.273438 506.46875 458.664062 506.058594 458.007812 505.621094 C 456.816406 506.234375 446.507812 511.496094 441.414062 511.496094 C 441.296875 511.496094 441.175781 511.492188 441.0625 511.488281 C 435.535156 511.195312 415.082031 496.648438 413.929688 486.289062 C 411.035156 479.777344 414.136719 459.171875 417.441406 452.835938 C 422.601562 442.945312 432.0625 438.410156 444.085938 440.039062 C 447.410156 440.492188 450.644531 441.402344 453.679688 442.480469 C 449.101562 438.125 442.882812 437.085938 438.6875 436.414062 C 436.292969 436.035156 434.535156 435.742188 433.707031 435.007812 C 433.011719 435.019531 432.234375 435.03125 431.378906 435.039062 C 420.390625 435.148438 397.527344 435.375 396.140625 452.699219 Z M 662.371094 536.65625 L 839.394531 536.65625 L 820.285156 530.871094 L 651.011719 530.871094 Z M 315.511719 273.957031 C 318.011719 279.5625 333.910156 313.664062 349.972656 312.128906 C 355.015625 311.636719 359.9375 307.988281 364.511719 302.371094 C 359.996094 295.273438 337.761719 273.988281 336.222656 272.515625 C 329.128906 273.933594 322.253906 274.496094 315.511719 273.957031 Z M 431.375 434.1875 C 431.78125 434.183594 432.164062 434.179688 432.539062 434.171875 C 430.972656 433.417969 428.207031 432.921875 425.292969 432.410156 C 422.640625 431.941406 419.898438 431.457031 417.429688 430.707031 C 414.085938 429.6875 409.210938 425.707031 404.5 421.851562 C 400.636719 418.691406 396.65625 415.449219 393.878906 414.183594 C 395.34375 426.925781 396.332031 439.023438 396.285156 447.90625 C 401.117188 434.488281 421.207031 434.289062 431.375 434.1875 Z M 354.015625 267.476562 C 348.269531 269.515625 342.691406 271.167969 337.242188 272.316406 C 340.769531 275.691406 360.367188 294.566406 365.070312 301.667969 C 367.929688 298.027344 370.652344 293.636719 373.175781 288.761719 C 373.167969 288.753906 373.15625 288.757812 373.152344 288.75 C 373.082031 288.660156 366.015625 279.523438 354.054688 267.5625 C 354.027344 267.539062 354.035156 267.503906 354.015625 267.476562 Z M 842.746094 584.539062 L 718.984375 575.585938 L 609.519531 606.488281 L 755.78125 619.113281 Z M 366.8125 346.222656 L 375.371094 329.820312 C 375.457031 329.652344 375.636719 329.558594 375.828125 329.597656 C 376.011719 329.632812 376.152344 329.78125 376.171875 329.96875 C 376.203125 330.238281 377.683594 343.316406 379.292969 360.964844 C 380.71875 359.683594 382.433594 357.730469 384.171875 355.570312 C 384.195312 355.417969 384.285156 355.292969 384.433594 355.242188 C 388.632812 349.980469 392.804688 343.777344 392.867188 343.6875 C 392.933594 343.585938 393.039062 343.519531 393.15625 343.503906 C 393.273438 343.480469 393.394531 343.515625 393.488281 343.59375 C 393.707031 343.773438 398.9375 347.917969 402.890625 343.636719 C 405.824219 340.457031 399.023438 327.605469 394.761719 320.59375 C 394.734375 320.601562 394.699219 320.605469 394.667969 320.605469 C 394.476562 320.605469 394.300781 320.472656 394.253906 320.277344 C 394.222656 320.144531 394.269531 320.019531 394.351562 319.921875 C 393.945312 319.265625 393.554688 318.644531 393.21875 318.128906 C 393.214844 318.117188 393.21875 318.105469 393.214844 318.09375 C 390.105469 320.234375 386.828125 322.132812 383.441406 323.703125 C 382.453125 324.160156 381.464844 324.585938 380.476562 324.988281 L 387.527344 336.9375 C 387.644531 337.140625 387.578125 337.398438 387.375 337.519531 C 387.308594 337.558594 387.234375 337.578125 387.160156 337.578125 C 387.015625 337.578125 386.871094 337.503906 386.792969 337.367188 L 379.667969 325.292969 C 373.203125 327.796875 366.722656 329.074219 360.480469 329.074219 C 354.121094 329.074219 348.003906 327.769531 342.390625 325.152344 C 329.425781 319.113281 320.074219 306.136719 313.9375 294.5625 C 312.488281 293.652344 304.269531 288.601562 289.464844 281.53125 C 295.71875 289.816406 340.277344 348.574219 351 354.609375 C 360.011719 359.675781 365.929688 361.167969 367.917969 361.558594 C 367.300781 352.410156 366.789062 346.660156 366.769531 346.460938 C 366.757812 346.375 366.773438 346.292969 366.8125 346.222656 Z M 448.417969 568.957031 C 446.105469 547.550781 434.980469 527.441406 426.445312 522.777344 C 425.046875 522.015625 423.777344 521.722656 422.636719 521.84375 C 422.144531 521.976562 421.652344 522.109375 421.179688 522.25 C 415.117188 525.269531 401.042969 529.304688 390.484375 531.703125 C 390.484375 531.703125 390.480469 531.707031 390.480469 531.707031 C 390.480469 531.707031 390.476562 531.707031 390.476562 531.707031 C 386.269531 532.664062 382.625 533.355469 380.265625 533.621094 C 381.957031 537.996094 393.710938 569.246094 392.523438 590.046875 C 391.441406 608.972656 377.878906 624.371094 373.609375 628.777344 L 393.875 622.953125 L 393.941406 622.867188 C 394.078125 622.675781 394.34375 622.628906 394.535156 622.761719 L 434.359375 611.320312 C 435.566406 610.109375 451.121094 593.945312 448.417969 568.957031 Z M 358.992188 526.722656 C 358.992188 526.746094 358.992188 526.765625 358.992188 526.785156 C 358.988281 526.804688 358.984375 526.824219 358.980469 526.847656 C 358.976562 526.859375 358.976562 526.863281 358.976562 526.867188 C 358.957031 526.933594 358.921875 527.003906 358.882812 527.066406 C 359.851562 527.425781 360.816406 527.78125 361.75 528.128906 C 365.273438 529.4375 368.550781 530.65625 371.484375 531.535156 C 369.804688 524.832031 367.09375 511.238281 366.75 492.1875 C 360.757812 513.320312 359.164062 525.300781 358.992188 526.722656 Z M 304.738281 272.367188 C 304.710938 272.273438 304.734375 272.183594 304.769531 272.101562 C 299.589844 270.707031 294.460938 268.574219 289.339844 265.566406 C 283.703125 262.253906 278.75 258.046875 274.226562 253.34375 C 272.917969 252.667969 239.472656 235.425781 215.910156 229.878906 C 187.121094 223.105469 149.65625 238.078125 134.890625 244.828125 C 134.675781 244.921875 134.421875 244.832031 134.324219 244.617188 C 134.226562 244.40625 134.320312 244.152344 134.535156 244.050781 C 149.382812 237.265625 187.058594 222.210938 216.105469 229.050781 C 236.628906 233.878906 264.578125 247.523438 272.496094 251.507812 C 268.457031 247.09375 264.761719 242.292969 261.195312 237.410156 C 260.816406 237.054688 260.589844 236.835938 260.566406 236.8125 C 260.457031 236.707031 260.445312 236.5625 260.472656 236.425781 C 259.210938 234.679688 257.957031 232.933594 256.71875 231.183594 C 256.566406 231.078125 256.460938 231.007812 256.453125 231 C 256.316406 230.90625 256.285156 230.753906 256.304688 230.601562 C 256.113281 230.332031 255.917969 230.0625 255.726562 229.792969 C 249.3125 220.722656 243.25 212.160156 236.410156 206.253906 C 227.644531 198.683594 201.796875 191.246094 179.289062 187 C 178.871094 187.078125 178.644531 187.113281 178.625 187.117188 C 178.605469 187.117188 178.585938 187.121094 178.5625 187.121094 C 178.371094 187.121094 178.210938 186.980469 178.164062 186.792969 C 161.511719 183.714844 146.890625 182.429688 142.726562 184.214844 C 134.878906 187.578125 134.292969 194.539062 133.980469 198.277344 C 133.925781 198.886719 133.882812 199.394531 133.8125 199.8125 C 137.90625 199.925781 165.820312 200.800781 178.320312 204.09375 C 191.734375 207.621094 207.4375 213.316406 207.59375 213.375 C 207.816406 213.453125 207.929688 213.699219 207.851562 213.917969 C 207.785156 214.09375 207.621094 214.199219 207.449219 214.199219 C 207.402344 214.199219 207.351562 214.191406 207.304688 214.175781 C 207.148438 214.117188 191.480469 208.4375 178.105469 204.914062 C 165.347656 201.558594 136.332031 200.730469 133.515625 200.65625 C 133.136719 201.269531 132.222656 201.980469 130.789062 203.066406 C 126.488281 206.328125 118.480469 212.390625 115.875 223.855469 C 112.390625 239.179688 119.316406 250.519531 119.386719 250.632812 C 119.453125 250.738281 119.46875 250.867188 119.429688 250.988281 C 119.390625 251.105469 119.304688 251.203125 119.191406 251.253906 C 118.957031 251.351562 96.105469 261.324219 103.023438 281.386719 C 108.59375 297.539062 116.082031 306.632812 118.976562 309.738281 C 143.289062 275.429688 166.128906 256.753906 186.882812 254.234375 C 195.5 253.183594 210.988281 255.226562 230.488281 259.964844 C 247.917969 264.207031 266.210938 270.128906 278.222656 275.429688 C 297.535156 283.949219 309.261719 290.726562 313.175781 293.09375 C 307.488281 282.003906 304.789062 272.5625 304.738281 272.367188 Z M 338.15625 701.582031 L 303.976562 749.816406 L 0 749.816406 L 0 574.546875 C 9.289062 546.503906 29.929688 486.941406 56.410156 427.203125 C 77.679688 379.214844 98.5 340.515625 118.292969 312.171875 C 118.554688 311.800781 118.8125 311.441406 119.070312 311.070312 C 119.414062 311.414062 119.617188 311.605469 119.628906 311.617188 C 119.710938 311.6875 119.8125 311.722656 119.914062 311.722656 C 120.03125 311.722656 120.148438 311.675781 120.230469 311.582031 C 120.386719 311.40625 120.371094 311.136719 120.199219 310.980469 C 120.183594 310.964844 119.953125 310.75 119.574219 310.363281 C 143.777344 276.175781 166.453125 257.570312 186.984375 255.078125 C 201.851562 253.277344 247.628906 262.863281 277.878906 276.210938 C 281.53125 277.820312 284.878906 279.359375 287.988281 280.832031 C 287.992188 280.914062 287.996094 280.996094 288.046875 281.066406 C 288.554688 281.746094 338.941406 348.804688 350.578125 355.347656 C 360.144531 360.730469 366.15625 362.117188 367.976562 362.441406 C 369.542969 385.945312 371.6875 430.449219 368.195312 461.902344 C 367.085938 471.855469 366.695312 480.953125 366.730469 489.15625 C 360.972656 508.96875 358.40625 523.46875 358.226562 526.554688 C 358.179688 526.617188 358.148438 526.691406 358.132812 526.769531 L 358.21875 526.785156 C 358.21875 526.804688 358.21875 526.8125 358.21875 526.828125 C 353.347656 525.046875 348.113281 523.273438 343.007812 522.21875 C 342.886719 516.527344 341.324219 439.972656 343.371094 411.347656 C 343.386719 411.109375 343.210938 410.90625 342.972656 410.890625 C 342.765625 410.859375 342.535156 411.050781 342.519531 411.285156 C 340.492188 439.65625 342.003906 514.996094 342.148438 522.035156 C 329.40625 519.457031 318.949219 516.320312 317.292969 515.8125 C 317.132812 514.847656 316.507812 511.347656 315.402344 508.046875 C 316.300781 507.414062 318.5625 505.660156 320.304688 502.828125 C 322.316406 499.550781 323.921875 494.21875 320.136719 487.410156 C 317.917969 483.417969 314.511719 480.433594 310.195312 478.449219 C 310.296875 478.132812 311.660156 473.890625 312.863281 467.261719 C 312.980469 467.175781 313.070312 467.058594 313.054688 466.902344 C 313.042969 466.746094 313.023438 466.59375 313.007812 466.441406 C 314.199219 459.605469 315.167969 450.449219 314.484375 440.519531 C 313.625 428.078125 298.371094 395.84375 284.910156 367.402344 C 275.824219 348.199219 267.972656 331.617188 265.976562 324.199219 C 265.316406 321.742188 265.324219 320.1875 266.003906 319.941406 C 270.265625 318.351562 294.503906 347.597656 298.695312 356.582031 C 303.570312 367.03125 300.832031 382.554688 300.804688 382.710938 C 300.761719 382.941406 300.914062 383.164062 301.144531 383.207031 C 301.371094 383.242188 301.601562 383.09375 301.640625 382.863281 C 301.671875 382.703125 304.460938 366.917969 299.46875 356.222656 C 295.375 347.449219 270.789062 317.277344 265.710938 319.140625 C 264.5 319.582031 264.316406 321.308594 265.15625 324.421875 C 267.171875 331.917969 275.035156 348.53125 284.140625 367.765625 C 297.566406 396.140625 312.785156 428.296875 313.632812 440.582031 C 314.226562 449.195312 313.566406 457.222656 312.597656 463.636719 C 311.242188 456.714844 307.3125 450.265625 299.394531 441.6875 C 292.238281 433.933594 247.949219 412.308594 221.488281 399.382812 C 216.464844 396.929688 212.1875 394.839844 209.09375 393.300781 C 212.179688 390.566406 241.800781 376.488281 260.367188 386.730469 C 280.679688 397.933594 291.453125 422.644531 291.558594 422.894531 C 291.652344 423.109375 291.902344 423.207031 292.121094 423.117188 C 292.335938 423.027344 292.4375 422.773438 292.34375 422.558594 C 292.234375 422.308594 281.351562 397.332031 260.78125 385.984375 C 251.203125 380.699219 239.289062 381.832031 230.976562 383.707031 C 220.84375 386 212.640625 390.042969 209.71875 391.859375 C 208.148438 392.835938 208.03125 393.167969 208.046875 393.445312 C 208.050781 393.597656 208.1875 393.800781 208.324219 393.871094 C 211.445312 395.429688 215.875 397.59375 221.113281 400.152344 C 245.789062 412.203125 291.71875 434.636719 298.769531 442.273438 C 307.5625 451.796875 311.351562 458.628906 312.148438 466.421875 C 310.988281 473.042969 309.628906 477.429688 309.410156 478.113281 C 300.722656 474.464844 288.550781 474.757812 274.703125 479.375 C 274.480469 479.449219 274.359375 479.691406 274.433594 479.910156 C 274.507812 480.136719 274.753906 480.257812 274.972656 480.179688 C 295.878906 473.210938 312.898438 476.140625 319.390625 487.828125 C 325.4375 498.714844 317.398438 505.5625 315.105469 507.21875 C 314.515625 505.601562 313.804688 504.089844 312.964844 503.042969 C 312.015625 501.859375 310.105469 501.300781 307.589844 501.488281 C 301.765625 501.902344 293.679688 506.089844 288.730469 514.503906 C 281.007812 527.636719 272.664062 538.214844 267.480469 541.457031 C 266.535156 542.046875 264.816406 542.863281 262.640625 543.898438 C 251.550781 549.160156 228.480469 560.117188 219.53125 581.589844 C 219.441406 581.804688 219.546875 582.054688 219.761719 582.144531 C 219.816406 582.167969 219.871094 582.179688 219.925781 582.179688 C 220.09375 582.179688 220.253906 582.082031 220.320312 581.917969 C 229.140625 560.746094 252.011719 549.886719 263.003906 544.667969 C 265.207031 543.625 266.945312 542.796875 267.933594 542.179688 C 274.359375 538.164062 283.269531 525.472656 289.46875 514.9375 C 294.261719 506.789062 302.054688 502.738281 307.652344 502.335938 C 309.84375 502.171875 311.546875 502.628906 312.300781 503.578125 C 313.121094 504.605469 313.824219 506.144531 314.40625 507.792969 C 314.347656 507.921875 314.328125 508.0625 314.40625 508.191406 C 314.453125 508.265625 314.523438 508.316406 314.597656 508.351562 C 315.683594 511.613281 316.308594 515.121094 316.453125 515.988281 C 314.832031 517.492188 300.382812 531.089844 293 545.1875 C 285.238281 560.003906 273.140625 588.433594 273.019531 588.71875 C 272.925781 588.933594 273.027344 589.183594 273.242188 589.277344 C 273.457031 589.371094 273.707031 589.269531 273.800781 589.050781 C 273.921875 588.765625 286.007812 560.371094 293.757812 545.582031 C 301.027344 531.699219 315.265625 518.253906 317.019531 516.625 C 318.730469 517.148438 329.496094 520.378906 342.5 522.980469 C 348.902344 524.261719 355.570312 526.742188 361.453125 528.933594 C 365.179688 530.320312 368.65625 531.613281 371.746094 532.507812 C 371.816406 532.664062 371.957031 532.773438 372.125 532.773438 C 372.160156 532.773438 372.195312 532.769531 372.230469 532.757812 C 372.285156 532.746094 372.3125 532.699219 372.355469 532.667969 C 375.03125 533.40625 377.402344 533.816406 379.378906 533.691406 C 380.609375 536.839844 392.878906 568.890625 391.671875 590.003906 C 390.414062 612.027344 371.941406 629.25 371.757812 629.421875 C 371.707031 629.464844 371.703125 629.527344 371.679688 629.582031 C 366.082031 633.296875 351.453125 635.636719 335.453125 637.667969 C 335.449219 637.667969 335.445312 637.664062 335.4375 637.664062 C 335.425781 637.664062 335.421875 637.671875 335.414062 637.675781 C 331.769531 638.136719 328.066406 638.585938 324.378906 639.03125 C 315.074219 640.152344 305.453125 641.3125 297.585938 642.664062 C 289.046875 644.125 281.757812 645.589844 275.324219 646.882812 C 262.804688 649.398438 253.761719 651.214844 244.886719 651.214844 C 237.335938 651.214844 233.199219 648.304688 226.9375 643.90625 C 222.136719 640.535156 216.160156 636.335938 206.554688 632 C 200.042969 629.054688 195.722656 624.824219 193.714844 619.421875 C 190.398438 610.484375 194.601562 601.277344 194.640625 601.1875 C 194.734375 600.988281 194.660156 600.75 194.46875 600.640625 C 194.382812 600.589844 185.890625 595.628906 181.691406 592.125 C 180.101562 590.800781 179.914062 588.25 180.253906 585.652344 C 180.324219 585.597656 180.378906 585.523438 180.402344 585.429688 C 180.4375 585.304688 180.402344 585.183594 180.332031 585.085938 C 180.925781 581.355469 182.492188 577.710938 182.519531 577.648438 C 182.578125 577.519531 182.566406 577.367188 182.488281 577.25 C 182.421875 577.148438 176.027344 567.039062 169.703125 544.558594 C 165.320312 528.96875 180.113281 522.519531 195.777344 515.695312 C 202.550781 512.746094 209.558594 509.691406 215.175781 505.800781 C 215.371094 505.667969 215.417969 505.402344 215.285156 505.207031 C 215.152344 505.011719 214.882812 504.964844 214.691406 505.101562 C 209.140625 508.941406 202.171875 511.976562 195.433594 514.914062 C 179.421875 521.890625 164.296875 528.484375 168.878906 544.785156 C 174.765625 565.707031 180.734375 576.003906 181.648438 577.511719 C 181.296875 578.351562 180.0625 581.453125 179.519531 584.738281 C 146.816406 575.660156 149.640625 549.96875 151.714844 531.175781 C 152.113281 527.578125 152.488281 524.179688 152.601562 521.152344 C 153.085938 508.082031 149.410156 494.050781 145.515625 479.195312 C 143.71875 472.328125 141.855469 465.226562 140.472656 458.300781 C 139.105469 451.464844 139.210938 444.621094 140.027344 437.960938 C 140.039062 437.953125 140.054688 437.957031 140.066406 437.949219 C 140.273438 437.835938 140.347656 437.578125 140.234375 437.371094 C 140.199219 437.304688 140.160156 437.226562 140.125 437.15625 C 141.019531 430.3125 142.636719 423.671875 144.152344 417.445312 C 145.6875 411.160156 147.132812 405.222656 147.613281 399.945312 L 147.859375 397.15625 C 149.113281 382.742188 150.105469 371.355469 166.828125 335.90625 C 166.929688 335.691406 166.835938 335.4375 166.625 335.335938 C 166.414062 335.238281 166.160156 335.328125 166.054688 335.542969 C 149.269531 371.128906 148.273438 382.582031 147.007812 397.082031 L 146.761719 399.867188 C 146.289062 405.082031 144.847656 410.988281 143.324219 417.242188 C 141.886719 423.136719 140.371094 429.398438 139.445312 435.859375 C 133.730469 424.726562 128.296875 406.144531 125.441406 387.765625 C 121.9375 365.234375 122.640625 346.511719 127.417969 335.046875 C 137.976562 309.710938 164.546875 271.332031 164.816406 270.945312 C 164.949219 270.753906 164.898438 270.488281 164.707031 270.351562 C 164.515625 270.21875 164.25 270.265625 164.113281 270.460938 C 163.847656 270.84375 137.222656 309.300781 126.632812 334.71875 C 115.613281 361.164062 128.152344 416.664062 139.242188 437.308594 C 138.359375 444.214844 138.210938 451.332031 139.636719 458.464844 C 141.027344 465.414062 142.890625 472.53125 144.695312 479.410156 C 148.570312 494.203125 152.234375 508.175781 151.753906 521.121094 C 151.691406 522.761719 151.550781 524.523438 151.371094 526.367188 C 145.363281 517.605469 94.757812 442.492188 94.757812 399.433594 C 94.757812 399.195312 94.566406 399.007812 94.332031 399.007812 C 94.097656 399.007812 93.90625 399.195312 93.90625 399.433594 C 93.90625 445.03125 150.15625 526.125 151.238281 527.675781 C 151.125 528.789062 151.003906 529.917969 150.875 531.082031 C 148.761719 550.199219 145.886719 576.347656 179.394531 585.585938 C 179.042969 588.410156 179.296875 591.238281 181.148438 592.777344 C 184.929688 595.929688 192.109375 600.230469 193.714844 601.183594 C 192.964844 603 189.855469 611.445312 192.914062 619.707031 C 195.003906 625.335938 199.472656 629.734375 206.203125 632.773438 C 215.738281 637.078125 221.675781 641.25 226.449219 644.601562 C 232.84375 649.09375 237.066406 652.0625 244.886719 652.0625 C 253.84375 652.0625 262.925781 650.242188 275.492188 647.714844 C 281.917969 646.425781 289.203125 644.960938 297.730469 643.5 C 305.578125 642.15625 315.1875 640.996094 324.480469 639.875 C 328.007812 639.449219 331.554688 639.019531 335.042969 638.578125 C 335.246094 643.722656 337.144531 692.175781 338.15625 701.582031 Z M 309.59375 422.390625 C 309.652344 422.421875 309.71875 422.4375 309.785156 422.4375 C 309.9375 422.4375 310.089844 422.347656 310.164062 422.199219 C 311.714844 419.101562 317.34375 400.617188 318.765625 387.109375 C 319.792969 377.367188 316.847656 357.070312 314.484375 340.761719 C 313.554688 334.359375 312.753906 328.832031 312.347656 324.976562 C 312.320312 324.742188 312.121094 324.574219 311.878906 324.601562 C 311.644531 324.625 311.472656 324.832031 311.5 325.070312 C 311.90625 328.9375 312.710938 334.472656 313.640625 340.882812 C 315.996094 357.144531 318.933594 377.382812 317.917969 387.019531 C 316.53125 400.1875 310.886719 418.847656 309.402344 421.820312 C 309.296875 422.03125 309.382812 422.289062 309.59375 422.390625 Z M 309.59375 422.390625 " fill-opacity="1" fill-rule="nonzero"/><path fill="#e4e4e4" d="M 393.929688 317.660156 C 393.917969 317.640625 393.890625 317.640625 393.875 317.621094 C 402.300781 311.675781 409.410156 303.875 413.824219 295.476562 C 415.402344 292.484375 416.730469 289.320312 417.855469 286.019531 C 420.714844 282.289062 429.132812 277.277344 429.214844 277.226562 C 429.257812 277.203125 429.269531 277.152344 429.296875 277.117188 C 432.109375 280.761719 435.421875 284.804688 438.871094 288.476562 C 438.878906 288.523438 438.863281 288.566406 438.890625 288.609375 C 438.902344 288.636719 439.941406 291.378906 430.285156 302.246094 C 421.070312 312.609375 399.011719 318.625 395.160156 319.613281 C 394.488281 318.519531 394.027344 317.808594 393.929688 317.660156 Z M 563.796875 125.945312 C 563.589844 126.011719 563.382812 126.078125 563.175781 126.144531 C 565.214844 125.851562 567.296875 125.621094 569.492188 125.542969 C 582.632812 125.078125 589.214844 127.066406 592.816406 130.378906 C 592.523438 125.601562 590.195312 120.441406 581.542969 120.386719 C 575.375 122.207031 569.679688 124.042969 563.796875 125.945312 Z M 399.050781 325.847656 C 399.273438 325.820312 421.464844 323.050781 431.398438 311.027344 C 440.59375 299.898438 441.136719 292.035156 441.164062 290.84375 C 440.6875 290.367188 440.214844 289.886719 439.738281 289.394531 C 439.5 291.109375 437.925781 294.929688 430.917969 302.808594 C 421.734375 313.144531 400.15625 319.191406 395.617188 320.371094 C 396.511719 321.84375 397.652344 323.800781 398.820312 325.976562 C 398.886719 325.917969 398.957031 325.859375 399.050781 325.847656 Z M 629.300781 530.019531 L 819.921875 530.019531 L 819.921875 496.640625 L 629.300781 496.640625 Z M 467.023438 301.632812 C 465.285156 307.007812 464.996094 312.410156 464.714844 317.636719 C 464.6875 318.191406 464.65625 318.746094 464.625 319.300781 C 464.671875 319.371094 464.71875 319.445312 464.71875 319.535156 C 464.71875 322.214844 464.738281 324.691406 464.757812 327.003906 C 464.839844 338.160156 464.890625 345.53125 462.78125 353.96875 C 458.46875 371.226562 444.351562 382.671875 434.726562 388.679688 C 451.164062 381.015625 474.136719 367.179688 474.136719 344.242188 C 474.136719 326.746094 474.902344 304.667969 476.199219 295.644531 C 473.546875 298.867188 470.519531 300.859375 467.023438 301.632812 Z M 403.515625 344.210938 C 399.664062 348.382812 394.710938 345.480469 393.324219 344.527344 C 392.339844 345.980469 388.707031 351.269531 385.035156 355.859375 C 386.078125 361.296875 387.390625 368.808594 388.757812 377.347656 C 399.648438 363.191406 414.101562 349.925781 432.925781 336.832031 C 444.253906 328.949219 449.460938 319.527344 451.835938 313.007812 C 454.410156 305.941406 454.300781 300.664062 454.296875 300.613281 C 454.292969 300.390625 454.460938 300.21875 454.675781 300.191406 C 453.703125 299.828125 452.710938 299.417969 451.6875 298.945312 C 448.664062 297.542969 445.3125 294.875 441.972656 291.644531 C 441.734375 294.226562 440.308594 301.578125 432.054688 311.570312 C 422.082031 323.640625 400.191406 326.566406 399.199219 326.691406 C 402.660156 333.242188 406.097656 341.414062 403.515625 344.210938 Z M 585.8125 551.367188 C 584.777344 553.753906 583.449219 555.753906 582.433594 556.433594 C 580.828125 557.503906 579.050781 557.988281 578.171875 558.175781 C 578.863281 559.820312 580.628906 565.019531 577.148438 568.5 C 573.40625 572.242188 565.972656 577.414062 557.34375 579.664062 C 548.441406 581.988281 520.382812 588.222656 508.679688 586.449219 C 506.734375 586.152344 504.902344 585.757812 503.128906 585.375 C 497.316406 584.125 491.828125 582.941406 483.183594 585.367188 C 478.683594 586.632812 471.390625 589.375 464.238281 592.214844 L 515.507812 599.144531 L 705.117188 564.734375 L 586.070312 551.503906 C 585.96875 551.5 585.882812 551.4375 585.8125 551.367188 Z M 756.714844 629.101562 L 844.097656 591.667969 L 844.191406 584.878906 L 756.230469 619.851562 Z M 628.449219 529.667969 L 628.449219 496.429688 L 612.789062 484.945312 C 609.558594 486.488281 607.328125 488.921875 606.171875 492.195312 C 603.65625 499.335938 606.722656 508.71875 608.933594 513.140625 C 611.703125 518.679688 625.3125 527.652344 628.449219 529.667969 Z M 607.613281 607.179688 L 608.097656 615.414062 L 755.867188 629.234375 L 755.378906 619.9375 Z M 651.441406 557.917969 L 661.84375 559.070312 L 661.84375 537.34375 L 649.320312 530.964844 C 649.28125 530.945312 649.269531 530.902344 649.242188 530.871094 L 628.875 530.871094 C 628.796875 530.871094 628.71875 530.847656 628.648438 530.804688 C 628.371094 530.632812 625.652344 528.921875 622.265625 526.527344 L 622.265625 538.777344 L 651.429688 557.902344 C 651.4375 557.90625 651.4375 557.914062 651.441406 557.917969 Z M 388.046875 378.3125 C 386.695312 369.800781 385.382812 362.277344 384.332031 356.730469 C 382.621094 358.820312 380.933594 360.695312 379.542969 361.890625 C 379.496094 361.933594 379.4375 361.9375 379.382812 361.953125 C 381.101562 380.964844 382.945312 405.011719 383.304688 424.140625 C 383.507812 434.695312 383.425781 445.835938 383.347656 456.605469 C 383.199219 477.542969 383.058594 497.605469 384.898438 511.980469 C 386.882812 503.570312 394.074219 472.121094 395.292969 452.648438 C 396.292969 436.601562 392.066406 403.65625 388.128906 378.789062 C 387.996094 378.65625 387.96875 378.472656 388.046875 378.3125 Z M 482.765625 134.09375 C 482.820312 134.128906 488.195312 137.390625 496.402344 140.613281 C 505.371094 144.132812 510 140.023438 511.289062 138.5625 C 501.300781 135.867188 494.734375 132.238281 488.945312 129.023438 C 484.472656 126.539062 480.582031 124.394531 476.195312 123.402344 C 478.550781 131.777344 478.316406 140.632812 475.445312 148.996094 C 485.03125 148.820312 493.277344 142.832031 495.410156 141.136719 C 487.519531 137.976562 482.371094 134.855469 482.320312 134.824219 C 482.121094 134.699219 482.054688 134.4375 482.179688 134.234375 C 482.304688 134.035156 482.570312 133.96875 482.765625 134.09375 Z M 458.074219 146.261719 C 455.257812 154.113281 449.535156 160.402344 441.96875 163.972656 C 434.402344 167.539062 425.910156 167.953125 418.054688 165.132812 C 401.820312 159.300781 393.351562 141.347656 399.183594 125.113281 C 403.765625 112.355469 415.824219 104.394531 428.660156 104.394531 C 432.164062 104.394531 435.726562 104.988281 439.203125 106.238281 C 447.058594 109.058594 453.347656 114.777344 456.917969 122.347656 C 460.484375 129.914062 460.894531 138.40625 458.074219 146.261719 Z M 454.835938 123.328125 C 451.535156 116.324219 445.707031 111.03125 438.421875 108.414062 C 431.132812 105.796875 423.269531 106.175781 416.269531 109.476562 C 409.269531 112.777344 403.976562 118.605469 401.359375 125.890625 C 395.957031 140.925781 403.800781 157.554688 418.835938 162.957031 C 422.035156 164.105469 425.34375 164.675781 428.648438 164.675781 C 432.863281 164.675781 437.0625 163.742188 440.988281 161.894531 C 447.984375 158.589844 453.285156 152.761719 455.898438 145.476562 C 458.515625 138.195312 458.140625 130.328125 454.835938 123.328125 Z M 342.75 324.378906 C 353.660156 329.460938 366.519531 329.464844 379.335938 324.5 C 379.359375 324.386719 379.421875 324.285156 379.53125 324.222656 C 379.675781 324.136719 379.832031 324.171875 379.964844 324.261719 C 381.003906 323.84375 382.042969 323.40625 383.078125 322.925781 C 395.796875 317.027344 407.011719 306.617188 413.074219 295.082031 C 417.554688 286.558594 420.035156 276.628906 421.28125 266.011719 C 421.1875 265.851562 421.226562 265.667969 421.34375 265.535156 C 423.480469 246.765625 421.765625 225.855469 420.175781 206.566406 C 419.117188 193.785156 418.191406 178.550781 419.445312 175.441406 C 417.492188 174.710938 415.617188 173.859375 413.835938 172.886719 C 413.671875 176.542969 413.5625 180.847656 413.441406 185.820312 C 412.597656 219.800781 411.03125 283.050781 383.265625 305.652344 C 376.304688 311.320312 368.03125 314.167969 358.585938 314.167969 C 355.527344 314.167969 352.347656 313.871094 349.046875 313.273438 C 348.90625 313.246094 348.816406 313.148438 348.757812 313.027344 C 341.519531 312.960938 333.640625 306.515625 325.324219 293.828125 C 319.484375 284.917969 315.367188 275.753906 314.542969 273.867188 C 311.542969 273.582031 308.570312 273.082031 305.617188 272.332031 C 306.023438 273.734375 308.863281 283.152344 314.421875 293.75 C 314.449219 293.800781 314.476562 293.855469 314.507812 293.910156 C 314.589844 293.960938 314.648438 293.996094 314.652344 294.003906 C 314.8125 294.105469 314.847656 294.289062 314.804688 294.460938 C 320.359375 304.890625 329.621094 318.261719 342.75 324.378906 Z M 381.8125 288.917969 C 374.308594 304.175781 365.277344 309.960938 357.195312 313.28125 C 367.023438 313.570312 375.589844 310.804688 382.730469 304.988281 C 410.1875 282.632812 411.75 219.640625 412.589844 185.796875 C 412.71875 180.628906 412.832031 176.160156 413.007812 172.40625 C 411.695312 171.652344 410.433594 170.835938 409.230469 169.957031 C 408.808594 173.539062 406.179688 194.261719 399.617188 215.292969 C 395.003906 255.585938 387.394531 277.566406 381.8125 288.917969 Z M 351.316406 312.773438 C 352.640625 312.960938 353.941406 313.09375 355.222656 313.183594 C 355.25 313.164062 355.257812 313.132812 355.289062 313.121094 C 363.609375 309.949219 373.175781 304.550781 381.050781 288.542969 C 386.402344 277.660156 393.628906 256.925781 398.257812 219.472656 C 395.953125 226.296875 393.222656 233.027344 390.003906 239.101562 C 390.011719 239.144531 390.042969 239.175781 390.035156 239.222656 C 385.46875 268.296875 369.609375 309.234375 351.316406 312.773438 Z M 463.550781 302.023438 C 462.003906 302.023438 460.359375 301.789062 458.640625 301.386719 C 458.753906 304.179688 458.992188 320.886719 449.875 332.949219 C 443.414062 341.492188 437.882812 345.339844 432.03125 349.414062 C 425.207031 354.164062 418.15625 359.070312 409.136719 372.078125 C 409.050781 372.199219 408.921875 372.261719 408.785156 372.261719 C 408.699219 372.261719 408.613281 372.238281 408.539062 372.1875 C 408.347656 372.050781 408.296875 371.785156 408.433594 371.59375 C 417.539062 358.457031 424.65625 353.503906 431.539062 348.714844 C 437.335938 344.679688 442.8125 340.867188 449.191406 332.433594 C 458.460938 320.175781 457.867188 302.972656 457.777344 301.195312 C 456.886719 300.957031 455.972656 300.667969 455.035156 300.328125 C 455.097656 300.398438 455.148438 300.488281 455.152344 300.589844 C 455.15625 300.800781 455.484375 322.175781 433.410156 337.53125 C 414.378906 350.769531 399.832031 364.175781 388.941406 378.5 C 390.085938 385.71875 391.25 393.613281 392.3125 401.59375 L 400.839844 389.554688 C 400.964844 389.378906 401.203125 389.320312 401.390625 389.425781 C 401.578125 389.527344 401.664062 389.753906 401.585938 389.957031 C 395.644531 405.234375 408.109375 414.425781 412.9375 417.3125 C 411.417969 414.921875 409.285156 409.832031 410.394531 400.980469 C 411.902344 388.898438 414.714844 366.410156 443.296875 351.570312 C 462.582031 341.554688 463.207031 329.914062 463.863281 317.589844 C 464.140625 312.449219 464.433594 307.140625 466.082031 301.808594 C 465.261719 301.933594 464.421875 302.023438 463.550781 302.023438 Z M 303.085938 207.292969 C 295.363281 211.15625 285.851562 212.472656 276.46875 212.472656 C 259.808594 212.472656 243.546875 208.320312 238.3125 206.851562 C 244.675781 212.746094 250.398438 220.789062 256.421875 229.300781 C 256.71875 229.71875 257.015625 230.140625 257.3125 230.558594 C 259.058594 231.730469 266.890625 236.839844 277.085938 241.097656 C 287.699219 245.527344 303.109375 249.914062 316.242188 245.648438 C 330.136719 241.132812 344.226562 228.210938 353.601562 218.167969 C 364.296875 206.710938 373.21875 194.386719 377.433594 187.101562 C 387.015625 166.722656 393.460938 150.070312 393.625 149.640625 C 393.675781 149.515625 393.78125 149.441406 393.898438 149.402344 C 390.667969 140.324219 390.402344 130.125 393.90625 120.367188 C 394.8125 117.835938 395.957031 115.457031 397.265625 113.210938 C 380.867188 132.125 323.808594 196.929688 303.085938 207.292969 Z M 398.925781 100.3125 C 367.441406 133.566406 319.863281 183.820312 298.609375 195.410156 C 285.617188 202.496094 270.027344 204.40625 256.988281 204.40625 C 245.292969 204.40625 235.675781 202.875 231.8125 202.15625 C 233.839844 203.277344 235.5625 204.414062 236.894531 205.550781 C 238.527344 206.054688 279.125 218.320312 302.707031 206.53125 C 326.738281 194.515625 400.339844 108.355469 401.078125 107.488281 C 401.160156 107.394531 401.269531 107.347656 401.386719 107.34375 C 410.019531 97 423.121094 91.167969 436.652344 91.808594 C 436.609375 91.691406 436.605469 91.566406 436.675781 91.449219 C 437.554688 90.007812 438.699219 88.105469 440.058594 85.851562 C 446.472656 75.207031 457.113281 57.546875 466.394531 43.71875 C 462.304688 45.417969 445.175781 53.316406 424.164062 74.054688 C 418.441406 79.703125 409.398438 89.253906 398.925781 100.3125 Z M 392.503906 69.613281 C 364.0625 103.519531 331.828125 141.949219 311.589844 151.941406 C 276.507812 169.265625 240.003906 180.828125 222.464844 186.386719 C 221.398438 186.722656 220.40625 187.039062 219.480469 187.332031 C 214.074219 189.179688 209.011719 190.660156 204.234375 191.949219 C 214.121094 194.671875 223.222656 197.804688 229.78125 201.085938 C 229.878906 200.988281 230.007812 200.921875 230.15625 200.960938 C 230.554688 201.050781 270.433594 209.808594 298.199219 194.664062 C 319.335938 183.136719 366.855469 132.945312 398.304688 99.730469 C 408.78125 88.664062 417.828125 79.105469 423.5625 73.449219 C 447.738281 49.59375 466.847656 42.613281 467.035156 42.546875 C 467.085938 42.527344 467.128906 42.554688 467.179688 42.554688 C 469.714844 38.804688 472.140625 35.351562 474.328125 32.460938 C 481.550781 22.914062 490.496094 14.164062 497.40625 8.894531 C 495.207031 8.71875 492.722656 8.40625 489.851562 8.046875 C 480.605469 6.878906 468.476562 5.355469 454.546875 7.03125 C 454.496094 7.058594 454.453125 7.109375 454.390625 7.113281 C 444.015625 8.199219 418.996094 38.03125 392.503906 69.613281 Z M 320.902344 263.164062 C 319.59375 263.273438 318.285156 263.328125 316.984375 263.328125 C 294.082031 263.328125 272.5625 247.179688 264.21875 240.085938 C 271.492188 249.753906 279.5 258.796875 289.769531 264.835938 C 297.929688 269.628906 306.128906 272.1875 314.539062 273.003906 C 314.5625 272.984375 314.570312 272.949219 314.601562 272.9375 C 314.769531 272.871094 314.933594 272.9375 315.050781 273.054688 C 331.730469 274.535156 349.242188 269.171875 368.902344 260.640625 C 383.171875 254.449219 392.664062 234.757812 398.761719 215.238281 C 398.78125 215.089844 398.796875 214.949219 398.8125 214.804688 C 398.828125 214.683594 398.894531 214.585938 398.988281 214.519531 C 405.828125 192.324219 408.300781 170.582031 408.433594 169.386719 C 401.953125 164.457031 397.09375 157.828125 394.246094 150.402344 C 392.820312 154.054688 382.671875 179.792969 369.375 205.503906 C 350.140625 242.6875 333.832031 262.089844 320.902344 263.164062 Z M 501.816406 42.917969 C 488.371094 60.890625 463.101562 101.769531 462.792969 102.269531 C 463.492188 102.875 464.164062 103.507812 464.824219 104.15625 C 476.246094 85.125 498.195312 51.777344 507.898438 39.445312 C 518.023438 26.566406 527.039062 16.296875 534.542969 21.082031 C 534.609375 20.9375 534.667969 20.738281 534.675781 20.472656 C 534.695312 19.796875 534.363281 18.640625 532.816406 16.917969 C 523.882812 15.6875 515.984375 23.980469 501.816406 42.917969 Z M 280.601562 155.277344 C 262.574219 167.9375 247.097656 176.1875 233.546875 181.941406 C 252.96875 175.621094 282.570312 165.324219 311.210938 151.179688 C 331.289062 141.265625 363.464844 102.90625 391.847656 69.066406 C 416.519531 39.652344 438.191406 13.820312 450.234375 7.648438 C 435.054688 10.160156 417.960938 16.699219 400.234375 31.5625 C 385.582031 43.851562 374.816406 56.511719 364.40625 68.75 C 363.726562 69.554688 363.046875 70.351562 362.367188 71.148438 C 360.957031 72.859375 359.386719 74.78125 357.675781 76.871094 C 341.386719 96.796875 311.074219 133.882812 280.601562 155.277344 Z M 320.832031 262.316406 C 338.09375 260.878906 359.273438 224.609375 374.332031 193.601562 C 363.480469 209.675781 339.230469 239.078125 316.507812 246.460938 C 312.640625 247.71875 308.585938 248.242188 304.519531 248.242188 C 294.5 248.242188 284.390625 245.074219 276.746094 241.878906 C 268.578125 238.46875 261.925781 234.519531 258.652344 232.445312 C 259.679688 233.890625 260.714844 235.335938 261.757812 236.773438 C 266.003906 240.726562 292.949219 264.652344 320.832031 262.316406 Z M 593.703125 131.285156 C 594.917969 132.667969 595.722656 134.234375 596.335938 135.921875 C 597.855469 134.519531 602.890625 129.421875 601.847656 124.210938 C 600.707031 118.496094 595.605469 116.9375 594.824219 116.730469 C 590.9375 117.71875 587.34375 118.707031 583.90625 119.699219 C 592.199219 120.769531 593.65625 127.175781 593.703125 131.285156 Z M 251.90625 159.644531 C 211.738281 178.957031 188.6875 184.988281 181.277344 186.601562 C 188.449219 187.992188 195.886719 189.695312 202.972656 191.609375 C 203.015625 191.484375 203.101562 191.375 203.242188 191.339844 C 207.535156 190.191406 212.082031 188.875 216.886719 187.296875 C 216.90625 187.285156 216.914062 187.261719 216.9375 187.253906 C 217.628906 187.03125 218.378906 186.789062 219.175781 186.535156 C 235.777344 180.871094 255.585938 171.800781 280.113281 154.582031 C 305.25 136.929688 330.304688 108.539062 347.417969 87.992188 C 345.730469 89.769531 344 91.535156 342.226562 93.277344 L 342.144531 93.363281 C 327.976562 108.175781 301.597656 135.753906 251.90625 159.644531 Z M 662.695312 559.164062 L 695.632812 562.824219 C 695.710938 562.722656 695.816406 562.648438 695.953125 562.644531 L 841.847656 560.726562 L 841.847656 537.507812 L 662.695312 537.507812 Z M 386.785156 524.910156 C 382.101562 511.40625 382.292969 484.785156 382.492188 456.601562 C 382.570312 445.835938 382.648438 434.703125 382.449219 424.160156 C 381.808594 390.097656 376.460938 340.359375 375.476562 331.453125 L 367.625 346.507812 C 367.707031 347.421875 368.199219 353.113281 368.78125 361.75 C 368.941406 361.828125 369.058594 361.972656 369.039062 362.15625 C 369.023438 362.292969 368.9375 362.386719 368.828125 362.453125 C 370.398438 386.007812 372.535156 430.511719 369.039062 461.992188 C 367.960938 471.707031 367.566406 480.667969 367.597656 488.742188 C 367.65625 488.839844 367.671875 488.957031 367.640625 489.074219 C 367.625 489.121094 367.613281 489.164062 367.601562 489.207031 C 367.734375 511.011719 371 526.207031 372.425781 531.804688 C 375.207031 532.582031 377.65625 533.015625 379.628906 532.832031 C 381.832031 532.632812 385.480469 531.957031 389.75 531 C 388.660156 528.230469 386.804688 524.945312 386.785156 524.910156 Z M 251.535156 158.878906 C 291.417969 139.703125 316.234375 118.148438 331.773438 102.761719 C 320.144531 112.460938 306.054688 121.449219 287.019531 129.332031 C 229.976562 152.953125 198.96875 166.214844 174.492188 185.359375 C 175.996094 185.617188 177.519531 185.890625 179.0625 186.175781 C 182.84375 185.492188 206.269531 180.640625 251.535156 158.878906 Z M 462.691406 592.871094 C 462.679688 592.871094 462.671875 592.855469 462.65625 592.851562 C 457.433594 594.941406 452.414062 597.03125 448.742188 598.578125 L 515.769531 608.351562 L 515.121094 599.957031 Z M 608.953125 118.25 C 607.523438 116.40625 604.160156 114.660156 596.320312 116.375 C 598.292969 117.234375 601.75 119.367188 602.683594 124.042969 C 603.902344 130.136719 597.804688 135.785156 596.632812 136.804688 C 597.066406 138.167969 597.40625 139.597656 597.746094 141.066406 C 598.203125 140.757812 598.757812 140.378906 599.394531 139.925781 C 601.832031 137.476562 605.859375 133.070312 608.445312 128.300781 C 610.097656 125.246094 611.101562 121.003906 608.953125 118.25 Z M 516.621094 608.351562 L 708.328125 575.691406 L 707.667969 565.140625 L 515.972656 599.929688 Z M 603.644531 107.171875 C 603.425781 107.113281 603.300781 106.890625 603.347656 106.667969 C 598.675781 104.449219 592.03125 102.578125 582.578125 101.824219 C 568.289062 100.683594 552.1875 101.519531 536.617188 102.324219 C 520.242188 103.175781 504.769531 103.980469 494.675781 102.113281 C 477.851562 99.007812 471.316406 97.6875 469.941406 97.40625 C 468.3125 100.03125 466.804688 102.507812 465.441406 104.777344 C 468.761719 108.179688 471.5625 112.117188 473.652344 116.550781 C 474.5625 118.480469 475.320312 120.457031 475.933594 122.460938 C 480.628906 123.429688 484.679688 125.675781 489.359375 128.273438 C 495.226562 131.535156 501.878906 135.230469 512.136719 137.917969 C 522.085938 140.523438 530.515625 137.089844 540.277344 133.113281 C 544.859375 131.246094 549.804688 129.261719 555.273438 127.777344 C 558.085938 126.886719 560.839844 126.003906 563.53125 125.132812 C 569.433594 123.226562 575.148438 121.382812 581.339844 119.554688 C 581.363281 119.550781 581.378906 119.527344 581.40625 119.527344 C 581.417969 119.527344 581.421875 119.53125 581.429688 119.53125 C 585.578125 118.308594 589.929688 117.097656 594.714844 115.878906 C 604.011719 113.511719 607.957031 115.574219 609.625 117.722656 C 611.632812 120.300781 611.464844 124.507812 609.191406 128.703125 C 607.539062 131.757812 605.304688 134.660156 603.261719 137.015625 C 606.902344 134.113281 611.074219 130.277344 613.210938 126.503906 C 615.203125 122.992188 615.238281 118.894531 613.308594 115.261719 C 612.09375 112.964844 609.488281 109.773438 604.058594 107.03125 C 603.980469 107.121094 603.878906 107.183594 603.757812 107.183594 C 603.722656 107.1875 603.683594 107.183594 603.644531 107.171875 Z M 511.234375 36.625 C 510.351562 37.71875 509.464844 38.828125 508.566406 39.972656 C 500.128906 50.699219 482.394531 77.375 470.421875 96.636719 C 472.300781 97.019531 479 98.355469 494.832031 101.277344 C 504.835938 103.125 520.25 102.324219 536.574219 101.476562 C 552.167969 100.664062 568.292969 99.828125 582.644531 100.976562 C 592.066406 101.730469 598.753906 103.59375 603.515625 105.820312 C 604.101562 102.511719 605.351562 89.835938 593.046875 78.785156 C 581.367188 68.300781 536.675781 79.816406 515.191406 85.347656 C 510.039062 86.675781 505.964844 87.726562 503.761719 88.121094 C 503.53125 88.152344 503.304688 88.007812 503.265625 87.773438 C 503.226562 87.542969 503.378906 87.320312 503.609375 87.28125 C 505.78125 86.890625 509.839844 85.847656 514.980469 84.519531 C 537.320312 78.765625 578.117188 68.265625 591.996094 76.964844 C 589.257812 72.191406 580.953125 58.355469 571.140625 47.957031 C 571.085938 47.933594 571.027344 47.933594 570.984375 47.886719 C 558.136719 33.8125 528.304688 32.828125 511.234375 36.625 Z M 534.449219 22.023438 C 534.433594 22.019531 534.417969 22.023438 534.40625 22.011719 C 528.257812 17.683594 520.648438 25.050781 512.078125 35.578125 C 526.8125 32.554688 550.019531 32.996094 564.59375 41.691406 C 552.21875 30.789062 541.585938 25.292969 534.472656 22.050781 C 534.460938 22.046875 534.460938 22.03125 534.449219 22.023438 Z M 534.449219 22.023438 " fill-opacity="1" fill-rule="nonzero"/><path fill="#e4e4e4" d="M 506.917969 4.589844 C 506.960938 4.589844 507.003906 4.589844 507.042969 4.59375 C 511.191406 4.867188 527.234375 12.039062 531.859375 15.976562 C 522.101562 15.429688 513.625 25.714844 501.136719 42.40625 C 487.933594 60.050781 463.394531 99.675781 462.128906 101.722656 C 458.316406 98.5625 453.980469 96.023438 449.1875 94.300781 C 445.304688 92.90625 441.351562 92.117188 437.425781 91.859375 C 438.300781 90.421875 439.441406 88.527344 440.789062 86.289062 C 449.140625 72.421875 464.691406 46.613281 475.007812 32.972656 C 487.015625 17.101562 502.746094 4.589844 506.917969 4.589844 Z M 557.765625 475.914062 C 560.179688 474.464844 562.371094 474.0625 564.910156 473.597656 C 566.648438 473.277344 568.617188 472.917969 570.917969 472.148438 C 573.078125 471.429688 576.25 469.335938 579.316406 467.304688 C 582.199219 465.402344 584.988281 463.558594 587.246094 462.585938 L 545.285156 462.585938 C 549.726562 467.390625 554.257812 472.273438 557.707031 475.988281 C 557.730469 475.964844 557.738281 475.929688 557.765625 475.914062 Z M 847.085938 462.585938 L 847.085938 749.816406 L 305.019531 749.816406 L 391.707031 627.492188 C 399.152344 626.285156 506.222656 610.621094 515.8125 609.21875 L 516.171875 609.269531 C 516.191406 609.273438 516.210938 609.277344 516.230469 609.277344 C 516.242188 609.277344 516.253906 609.277344 516.265625 609.273438 C 516.269531 609.273438 516.269531 609.273438 516.269531 609.273438 C 516.28125 609.269531 516.292969 609.273438 516.304688 609.269531 L 708.847656 576.464844 C 709.0625 576.429688 709.214844 576.238281 709.199219 576.019531 L 708.664062 567.460938 L 789.421875 562.269531 L 842.277344 561.574219 C 842.511719 561.570312 842.699219 561.378906 842.699219 561.148438 L 842.699219 537.082031 C 842.699219 537.046875 842.671875 537.023438 842.664062 536.992188 C 842.648438 536.929688 842.636719 536.871094 842.59375 536.820312 C 842.5625 536.789062 842.53125 536.769531 842.492188 536.746094 C 842.460938 536.726562 842.4375 536.6875 842.398438 536.671875 L 820.777344 530.128906 L 820.777344 496.214844 C 820.777344 496.171875 820.742188 496.140625 820.726562 496.101562 C 820.710938 496.046875 820.703125 495.996094 820.667969 495.953125 C 820.628906 495.910156 820.585938 495.890625 820.535156 495.863281 C 820.496094 495.84375 820.476562 495.804688 820.429688 495.796875 L 761.515625 484.023438 L 612.828125 484.023438 C 612.785156 484.023438 612.753906 484.046875 612.714844 484.058594 C 612.695312 484.0625 612.671875 484.050781 612.648438 484.0625 C 609.078125 485.691406 606.628906 488.335938 605.367188 491.914062 C 605.027344 492.882812 604.789062 493.890625 604.628906 494.917969 C 604.808594 491.578125 604.226562 487.578125 602 484.828125 C 600.109375 482.488281 597.289062 481.246094 593.617188 481.128906 C 592.058594 481.082031 590.519531 481.09375 588.972656 481.074219 C 591.757812 478.460938 593.460938 474.402344 593.582031 469.910156 C 593.671875 466.6875 592.910156 463.890625 591.628906 462.585938 Z M 845.054688 584.253906 C 845.054688 584.242188 845.042969 584.234375 845.042969 584.222656 C 845.042969 584.207031 845.050781 584.195312 845.050781 584.179688 C 845.039062 584.113281 844.996094 584.0625 844.957031 584.011719 C 844.941406 583.988281 844.941406 583.960938 844.921875 583.945312 C 844.851562 583.875 844.761719 583.828125 844.660156 583.820312 L 718.96875 574.730469 C 718.917969 574.71875 718.871094 574.730469 718.824219 574.746094 L 607.042969 606.300781 C 606.992188 606.316406 606.960938 606.359375 606.917969 606.390625 C 606.886719 606.414062 606.855469 606.421875 606.832031 606.453125 C 606.78125 606.515625 606.761719 606.59375 606.753906 606.679688 C 606.75 606.699219 606.730469 606.714844 606.734375 606.738281 L 607.265625 615.832031 C 607.273438 615.90625 607.3125 615.964844 607.351562 616.027344 L 594.246094 618.90625 L 746.757812 629.238281 L 756.273438 630.128906 C 756.292969 630.128906 756.304688 630.148438 756.324219 630.148438 C 756.328125 630.148438 756.339844 630.148438 756.34375 630.148438 C 756.355469 630.148438 756.359375 630.140625 756.371094 630.136719 C 756.375 630.136719 756.378906 630.136719 756.382812 630.136719 C 756.441406 630.136719 756.496094 630.125 756.550781 630.101562 L 844.691406 592.34375 C 844.847656 592.28125 844.949219 592.128906 844.949219 591.960938 Z M 420.261719 174.84375 C 430.898438 178.664062 442.398438 178.105469 452.640625 173.273438 C 459.417969 170.074219 465.066406 165.242188 469.246094 159.273438 C 467.683594 159.378906 464.660156 159.558594 462.53125 159.558594 C 462.292969 159.558594 462.066406 159.558594 461.855469 159.554688 C 461.308594 159.539062 460.710938 159.386719 460.09375 159.148438 C 454.695312 166.902344 446.550781 172.140625 440.328125 172.992188 C 440.308594 172.996094 440.289062 172.996094 440.269531 172.996094 C 440.058594 172.996094 439.878906 172.84375 439.847656 172.628906 C 439.8125 172.394531 439.976562 172.179688 440.210938 172.148438 C 446.210938 171.328125 454.0625 166.28125 459.3125 158.800781 C 456.84375 157.59375 454.375 155.347656 454.238281 155.21875 C 454.214844 155.199219 454.21875 155.171875 454.203125 155.148438 C 451.117188 159.207031 447.085938 162.5 442.332031 164.738281 C 437.96875 166.800781 433.304688 167.832031 428.625 167.832031 C 424.96875 167.832031 421.308594 167.203125 417.769531 165.929688 C 409.703125 163.035156 403.242188 157.15625 399.574219 149.386719 C 395.949219 141.695312 395.507812 133.078125 398.300781 125.085938 L 394.5 121.300781 C 387.054688 143.117188 398.492188 167.027344 420.261719 174.84375 Z M 438.136719 109.214844 C 435.03125 108.101562 431.816406 107.546875 428.613281 107.546875 C 424.519531 107.546875 420.445312 108.449219 416.636719 110.246094 C 409.839844 113.449219 404.699219 119.109375 402.160156 126.179688 C 396.917969 140.773438 404.527344 156.910156 419.125 162.152344 C 426.195312 164.691406 433.832031 164.324219 440.625 161.121094 C 447.417969 157.917969 452.558594 152.257812 455.097656 145.191406 C 457.636719 138.121094 457.269531 130.484375 454.066406 123.691406 C 450.863281 116.894531 445.203125 111.753906 438.136719 109.214844 Z M 525.242188 466.109375 C 528.949219 468.167969 532.527344 471.804688 534.003906 475.050781 C 535.101562 477.46875 535.492188 482.871094 535.605469 485.015625 C 540.109375 483.492188 544.53125 481.917969 546.050781 481.371094 C 541.199219 476.636719 530.855469 466.527344 524.011719 459.75 C 524.359375 461.140625 524.789062 463.425781 525.242188 466.109375 Z M 448.898438 95.101562 C 444.1875 93.410156 439.363281 92.609375 434.621094 92.609375 C 417.328125 92.609375 401.082031 103.285156 394.8125 120.410156 L 398.632812 124.214844 C 404.855469 107.941406 423.019531 99.519531 439.492188 105.433594 C 447.558594 108.332031 454.019531 114.207031 457.683594 121.984375 C 461.351562 129.757812 461.773438 138.480469 458.875 146.546875 C 457.839844 149.441406 456.402344 152.113281 454.652344 154.535156 C 454.707031 154.554688 454.765625 154.554688 454.808594 154.59375 C 454.84375 154.625 457.402344 156.957031 459.785156 158.09375 C 461.21875 155.9375 462.449219 153.605469 463.34375 151.113281 C 471.203125 129.230469 463.972656 115.726562 456.527344 108.253906 C 456.359375 108.085938 456.359375 107.816406 456.527344 107.648438 C 456.695312 107.480469 456.964844 107.484375 457.128906 107.652344 C 464.753906 115.296875 472.15625 129.097656 464.144531 151.398438 C 463.246094 153.902344 462.015625 156.25 460.582031 158.421875 C 461.039062 158.582031 461.480469 158.691406 461.878906 158.699219 C 464.253906 158.757812 468.597656 158.46875 469.847656 158.375 C 471.707031 155.566406 473.285156 152.539062 474.453125 149.289062 C 478.269531 138.65625 477.710938 127.160156 472.882812 116.914062 C 468.046875 106.667969 459.53125 98.921875 448.898438 95.101562 Z M 465.691406 523.234375 C 466.273438 523.070312 466.828125 522.886719 467.378906 522.703125 C 467.566406 522.640625 467.765625 522.582031 467.953125 522.515625 C 468.484375 522.328125 468.980469 522.121094 469.472656 521.910156 C 469.644531 521.839844 469.832031 521.773438 469.996094 521.699219 C 470.636719 521.410156 471.242188 521.101562 471.800781 520.769531 C 474.996094 518.875 477.769531 517.09375 480.597656 515.25 C 479.554688 514.859375 477.203125 514.085938 472.5 512.9375 C 472.496094 512.9375 472.492188 512.933594 472.488281 512.933594 C 472.46875 512.953125 472.453125 512.960938 472.429688 512.980469 C 472.359375 513.039062 472.300781 513.082031 472.25 513.121094 L 463.859375 523.703125 C 464.296875 523.597656 464.734375 523.492188 465.160156 523.375 C 465.335938 523.328125 465.519531 523.28125 465.691406 523.234375 Z M 588.507812 508.109375 L 594.699219 520.226562 C 594.761719 520.351562 594.761719 520.5 594.695312 520.625 C 594.625 520.746094 594.503906 520.828125 594.363281 520.84375 C 594.160156 520.863281 593.867188 520.886719 593.546875 520.886719 C 593.1875 520.886719 592.789062 520.855469 592.441406 520.769531 C 592.414062 524.53125 591.222656 529.382812 589.601562 530.734375 C 588.183594 531.910156 584.511719 532.609375 581.558594 533.164062 C 580.25 533.414062 578.910156 533.667969 578.355469 533.871094 C 578.679688 534.242188 579.636719 534.945312 580.492188 535.574219 C 583.050781 537.460938 586.5625 540.046875 587.242188 542.78125 C 587.796875 544.996094 587.160156 548.019531 586.105469 550.679688 C 586.125 550.679688 586.140625 550.65625 586.164062 550.664062 L 618.488281 554.253906 L 592.960938 541.894531 L 621.410156 538.867188 L 621.410156 526.011719 C 621.410156 525.984375 621.433594 525.96875 621.441406 525.941406 C 616.3125 522.261719 610.027344 517.242188 608.167969 513.523438 C 606.378906 509.941406 604.058594 503.1875 604.433594 496.855469 C 604.40625 497.007812 604.390625 497.175781 604.367188 497.320312 C 603.667969 501.175781 590.984375 507.007812 588.507812 508.109375 Z M 524.585938 443.996094 C 524.585938 442.953125 524.316406 442.097656 523.898438 441.820312 C 523.75 441.71875 523.71875 441.546875 523.75 441.382812 C 522.789062 440.832031 521.910156 440.550781 521.097656 440.523438 C 519.703125 440.457031 518.382812 441.148438 516.890625 442.636719 C 515.332031 444.195312 515.050781 445.917969 515.375 447.550781 C 515.4375 447.59375 515.503906 447.632812 515.539062 447.707031 C 515.941406 448.597656 516.617188 449.1875 517.554688 449.457031 C 519.199219 449.925781 521.386719 449.308594 522.617188 448.492188 C 523.976562 447.578125 524.585938 445.578125 524.585938 443.996094 Z M 504.992188 265.105469 C 499.269531 265.625 491.339844 265.46875 488.097656 265.375 C 492.042969 266.773438 502.277344 269.824219 503.59375 271.164062 C 507.121094 271.578125 510.8125 271.578125 513.871094 269.222656 C 513.320312 268.132812 511.035156 264.558594 504.992188 265.105469 Z M 497.359375 271.378906 C 495.03125 271.695312 489.152344 266.863281 487.386719 265.355469 C 487.308594 265.351562 487.21875 265.347656 487.15625 265.347656 C 487.574219 267.566406 489.246094 276.21875 490.386719 279.269531 C 491.507812 282.257812 494.164062 285.128906 494.871094 285.859375 C 496.328125 285.367188 497.402344 284.441406 498.058594 283.105469 C 499.960938 279.238281 498.023438 273 497.472656 271.398438 C 497.40625 271.390625 497.359375 271.378906 497.359375 271.378906 Z M 497.359375 271.378906 " fill-opacity="1" fill-rule="nonzero"/></svg>